<?xml version="1.0" encoding="utf-8"?>
<!-- Generator: Adobe Illustrator 26.5.0, SVG Export Plug-In . SVG Version: 6.00 Build 0)  -->
<svg version="1.1" id="Layer_1" xmlns="http://www.w3.org/2000/svg" xmlns:xlink="http://www.w3.org/1999/xlink" x="0px" y="0px"
	 viewBox="0 0 1662.06 1662.06" style="enable-background:new 0 0 1662.06 1662.06;" xml:space="preserve">
<style type="text/css">
	.st0{fill:url(#SVGID_1_);}
	.st1{opacity:0.15;fill:#7F7C7C;}
	.st2{fill:#BAE4F4;}
	.st3{fill:#FFFFFF;}
	.st4{fill:#666666;}
	.st5{fill:#FFFFFF;stroke:#020000;stroke-miterlimit:10;}
	.st6{fill:url(#SVGID_00000111870375750315512950000007689006389927308434_);}
	.st7{fill:#312B30;}
	.st8{fill:url(#SVGID_00000127041061569095966740000009048665114568504461_);}
	.st9{fill:#FCFCFC;stroke:#000000;stroke-miterlimit:10;}
	.st10{fill:url(#SVGID_00000110431129031829294390000003244957413562290074_);}
	.st11{fill:url(#SVGID_00000179645004801372291520000001625570877984803262_);}
	.st12{fill:#FFFFFF;stroke:#FFFFFF;stroke-miterlimit:10;}
	.st13{fill:#2E5EA0;}
	.st14{fill:#FC766B;}
	.st15{fill:#5D291C;}
	.st16{fill:#EF5233;}
	.st17{fill:#7A7878;}
	.st18{fill:#5D5D5D;}
	.st19{fill:#AA5842;}
	.st20{fill:#474647;}
	.st21{fill:#333333;}
	.st22{fill:url(#SVGID_00000069374969443107128610000015321116036055578815_);}
	.st23{fill:url(#SVGID_00000026884356547160996960000003809097597986596526_);}
	.st24{fill:url(#SVGID_00000065785845749295477280000017159033042014984627_);}
	.st25{fill:#141111;}
	.st26{fill:#765742;}
	.st27{fill:url(#SVGID_00000005972555578021007790000012965094819529803946_);}
	.st28{fill:url(#SVGID_00000064343772917651922530000002357349236894363026_);}
	.st29{fill:url(#SVGID_00000018202208055862301970000009974468387149965235_);}
	.st30{fill:#C2C2C2;}
	.st31{fill:#B2B2B2;}
	.st32{fill:url(#SVGID_00000100379033553463625060000015096965394620847768_);}
	.st33{fill:#FFD55E;}
	.st34{fill:url(#SVGID_00000139295281720408516760000013785383656958678447_);}
	.st35{fill:url(#SVGID_00000155846745877897743100000015508093714028188599_);}
	.st36{fill:url(#SVGID_00000011750247911117988190000008634227167427165069_);}
	.st37{fill:#EC6B48;}
	.st38{fill:#F6BEC1;}
	.st39{fill:#F9BB41;}
	.st40{fill:#8C503E;}
	.st41{fill:#DDDCDB;}
	.st42{fill:#6D372B;}
	.st43{fill:#AF6C5D;}
	.st44{fill:#ED6B47;}
	.st45{fill:url(#SVGID_00000174570579148785909960000004691379586364166538_);}
	.st46{fill:url(#SVGID_00000169532027042411591370000012703012835908310966_);}
	.st47{fill:url(#SVGID_00000057845796301131150300000018154091246130589364_);}
	.st48{fill:url(#SVGID_00000103262812990936958660000006479663019860392070_);}
	.st49{fill:#9CD3D4;}
	.st50{opacity:0.3;}
	.st51{fill:#F9F9F9;}
	.st52{fill:#2A2B2B;}
	.st53{opacity:0.15;}
	.st54{fill:#6AC1BC;}
	.st55{fill:#FFFFFF;stroke:#000000;stroke-miterlimit:10;}
	.st56{fill:url(#SVGID_00000054238118578527485430000014582520218063001513_);}
	.st57{fill:#404040;}
	.st58{fill:#303030;}
	.st59{fill:url(#SVGID_00000124130043765426111880000004362490254413617827_);}
	.st60{fill:url(#SVGID_00000129189383895047680750000012169740790995834752_);}
	.st61{fill:#BC6453;}
	.st62{fill:url(#SVGID_00000008129024693411881720000008538947098956511372_);}
	.st63{fill:url(#SVGID_00000136410737068849560460000003016150326271066509_);}
</style>
<g>
	<linearGradient id="SVGID_1_" gradientUnits="userSpaceOnUse" x1="908.5944" y1="1313.0857" x2="635.6484" y2="198.5573">
		<stop  offset="0" style="stop-color:#FFEBEB"/>
		<stop  offset="0.3464" style="stop-color:#FFE0E0"/>
		<stop  offset="0.9555" style="stop-color:#FFC2C4"/>
		<stop  offset="1" style="stop-color:#FFC0C2"/>
	</linearGradient>
	<circle class="st0" cx="787.74" cy="819.58" r="521.25"/>
	<ellipse class="st1" cx="1297.87" cy="1253.53" rx="134.07" ry="34.11"/>
	<path class="st1" d="M850.22,1126.92c-177.13,0-320.73,20.82-320.73,46.5c0,4.53,4.48,8.92,12.83,13.06
		c-32.9-10.97-91.07-18.26-157.35-18.26c-102.64,0-185.85,17.48-185.85,39.05c0,21.57,83.21,39.05,185.85,39.05
		s185.85-17.48,185.85-39.05c0-5.44-5.3-10.62-14.86-15.32c49.38,16.46,162.54,27.97,294.25,27.97
		c177.13,0,320.73-20.82,320.73-46.5C1170.95,1147.73,1027.35,1126.92,850.22,1126.92z"/>
	<g>
		<polygon class="st2" points="589.75,440.69 433.82,440.65 277.89,440.61 139.72,440.57 139.66,663.25 139.59,951.41 
			277.77,951.45 433.7,951.48 589.63,951.52 731.7,951.56 731.77,663.4 731.83,440.72 		"/>
		<path class="st3" d="M195.36,707.97L307.23,708c2.91-1.33,4.35-4.61,3.42-7.47c-1.01-3.13-4.57-4.96-7.9-3.84
			c-0.51-1.05-1.54-2.77-3.5-3.97c-3.21-1.96-7.54-1.71-11.23,0.55c-4.25-10.73-14.53-17.65-25.47-17.3
			c-14.31,0.45-21.72,13.08-22.1,13.77c-4.99-6.6-13.28-9.74-21.14-8.01c-10.89,2.4-14.82,12.79-15.06,13.45
			c-8.25-0.56-13.78,3.07-14.02,6.4C190.01,704.79,194.76,707.62,195.36,707.97z"/>
		<path class="st3" d="M436.71,777.24l161.77,0.04c4.21-1.92,6.28-6.66,4.94-10.8c-1.46-4.52-6.61-7.17-11.42-5.56
			c-0.73-1.52-2.23-4-5.06-5.73c-4.64-2.84-10.9-2.47-16.24,0.79c-6.15-15.52-21.01-25.52-36.83-25.02
			c-20.69,0.65-31.4,18.92-31.96,19.91c-7.21-9.55-19.2-14.09-30.56-11.59c-15.75,3.46-21.43,18.49-21.77,19.45
			c-11.93-0.82-19.93,4.44-20.28,9.26C428.97,772.65,435.84,776.74,436.71,777.24z"/>
		<path class="st3" d="M225.27,897.59l161.77,0.04c4.21-1.92,6.28-6.66,4.94-10.8c-1.46-4.52-6.61-7.17-11.42-5.56
			c-0.73-1.52-2.23-4-5.06-5.73c-4.64-2.84-10.9-2.47-16.24,0.79c-6.15-15.52-21.01-25.52-36.83-25.02
			c-20.69,0.65-31.4,18.92-31.96,19.91c-7.21-9.55-19.2-14.09-30.56-11.59c-15.75,3.46-21.43,18.49-21.77,19.45
			c-11.93-0.82-19.93,4.44-20.28,9.26C217.53,892.99,224.4,897.08,225.27,897.59z"/>
		<path class="st3" d="M334.55,624.54l99.65,0.02c2.59-1.18,3.87-4.1,3.04-6.66c-0.9-2.78-4.07-4.41-7.04-3.42
			c-0.45-0.94-1.37-2.47-3.12-3.53c-2.86-1.75-6.71-1.52-10.01,0.49c0.2-0.75,1.54-6.18-1.9-10.84c-3.03-4.11-8.55-5.94-13.88-4.57
			c-7.92-9.82-20.06-12.71-28.14-8.18c-6.2,3.46-8.22,10.27-8.75,12.36c-0.52-0.1-4.83-0.9-8.18,2.09
			c-2.11,1.89-2.69,4.26-2.85,5.13c-2.47-3.41-6.58-5.13-10.46-4.38c-4.78,0.93-8.43,5.47-8.37,10.84c-2.52,0.44-4.4,2.52-4.57,4.94
			C329.8,621.52,331.75,624.03,334.55,624.54z"/>
		<path class="st3" d="M548.35,558.23l99.65,0.02c2.59-1.18,3.87-4.1,3.04-6.66c-0.9-2.78-4.07-4.41-7.04-3.42
			c-0.45-0.94-1.37-2.47-3.12-3.53c-2.86-1.75-6.71-1.52-10.01,0.49c0.2-0.75,1.54-6.18-1.9-10.84c-3.03-4.11-8.55-5.94-13.88-4.57
			c-7.92-9.82-20.06-12.71-28.14-8.18c-6.2,3.46-8.22,10.27-8.75,12.36c-0.52-0.1-4.83-0.9-8.18,2.09
			c-2.11,1.89-2.69,4.26-2.85,5.13c-2.47-3.41-6.58-5.13-10.46-4.38c-4.78,0.93-8.43,5.47-8.37,10.84c-2.52,0.44-4.4,2.52-4.57,4.94
			C543.6,555.21,545.55,557.72,548.35,558.23z"/>
		<g>
			<g>
				<path class="st3" d="M274.07,955.14l0.07-295.55l163.32,0.04l-0.07,295.55L274.07,955.14z M281.53,666.98l-0.07,280.77
					L430,947.79l0.07-280.77L281.53,666.98z"/>
			</g>
			<g>
				<path class="st3" d="M274.14,666.98l0.06-230.06l163.32,0.04l-0.06,230.06L274.14,666.98z M281.59,444.3l-0.05,215.28
					l148.54,0.04l0.05-215.28L281.59,444.3z"/>
			</g>
			<g>
				<path class="st3" d="M135.9,955.11l0.07-295.55l145.56,0.04l-0.07,295.55L135.9,955.11z M143.36,666.94l-0.07,280.77
					l130.78,0.03l0.07-280.77L143.36,666.94z"/>
			</g>
			<g>
				<path class="st3" d="M135.97,666.94l0.06-230.06l145.56,0.04l-0.06,230.06L135.97,666.94z M143.41,444.27l-0.05,215.28
					l130.78,0.03l0.05-215.28L143.41,444.27z"/>
			</g>
			<g>
				<path class="st3" d="M430.07,667.02l0.06-230.06l163.32,0.04l-0.06,230.06L430.07,667.02z M437.52,444.34l-0.05,215.28
					L586,659.67l0.05-215.28L437.52,444.34z"/>
			</g>
			<g>
				<path class="st3" d="M430,955.18l0.07-295.55l163.32,0.04l0,3.7l-0.07,291.86L430,955.18z M437.46,667.02l-0.07,280.77
					l148.54,0.04L586,667.06L437.46,667.02z"/>
			</g>
			<g>
				<path class="st3" d="M585.93,955.22L586,659.67l149.46,0.04l0,3.7l-0.07,291.86L585.93,955.22z M593.39,667.06l-0.07,280.77
					L728,947.86l0.07-280.77L593.39,667.06z"/>
			</g>
			<g>
				<path class="st3" d="M586,667.06l0.06-230.06l149.46,0.04l-0.06,230.06L586,667.06z M593.45,444.38l-0.05,215.28l134.68,0.03
					l0.05-215.28L593.45,444.38z"/>
			</g>
		</g>
	</g>
	<g>
		<polygon class="st2" points="1302.44,440.69 1146.51,440.65 990.58,440.61 852.41,440.57 852.35,663.25 852.28,951.41 
			990.46,951.45 1146.39,951.48 1302.32,951.52 1444.39,951.56 1444.46,663.4 1444.52,440.72 		"/>
		<path class="st3" d="M908.05,707.97l111.87,0.03c2.91-1.33,4.35-4.61,3.42-7.47c-1.01-3.13-4.57-4.96-7.9-3.84
			c-0.51-1.05-1.54-2.77-3.5-3.97c-3.21-1.96-7.54-1.71-11.23,0.55c-4.25-10.73-14.53-17.65-25.47-17.3
			c-14.31,0.45-21.72,13.08-22.1,13.77c-4.99-6.6-13.28-9.74-21.14-8.01c-10.89,2.4-14.82,12.79-15.06,13.45
			c-8.25-0.56-13.78,3.07-14.02,6.4C902.7,704.79,907.45,707.62,908.05,707.97z"/>
		<path class="st3" d="M1149.4,777.24l161.77,0.04c4.21-1.92,6.28-6.66,4.94-10.8c-1.46-4.52-6.61-7.17-11.42-5.56
			c-0.73-1.52-2.23-4-5.06-5.73c-4.64-2.84-10.9-2.47-16.24,0.79c-6.15-15.52-21.01-25.52-36.83-25.02
			c-20.69,0.65-31.4,18.92-31.96,19.91c-7.21-9.55-19.2-14.09-30.56-11.59c-15.75,3.46-21.43,18.49-21.77,19.45
			c-11.93-0.82-19.93,4.44-20.28,9.26C1141.66,772.65,1148.53,776.74,1149.4,777.24z"/>
		<path class="st3" d="M937.96,897.59l161.77,0.04c4.21-1.92,6.28-6.66,4.94-10.8c-1.46-4.52-6.61-7.17-11.42-5.56
			c-0.73-1.52-2.23-4-5.06-5.73c-4.64-2.84-10.9-2.47-16.24,0.79c-6.15-15.52-21.01-25.52-36.83-25.02
			c-20.69,0.65-31.4,18.92-31.96,19.91c-7.21-9.55-19.2-14.09-30.56-11.59c-15.75,3.46-21.43,18.49-21.77,19.45
			c-11.93-0.82-19.93,4.44-20.28,9.26C930.22,892.99,937.09,897.08,937.96,897.59z"/>
		<path class="st3" d="M1047.24,624.54l99.65,0.02c2.59-1.18,3.87-4.1,3.04-6.66c-0.9-2.78-4.07-4.41-7.04-3.42
			c-0.45-0.94-1.37-2.47-3.12-3.53c-2.86-1.75-6.71-1.52-10.01,0.49c0.2-0.75,1.54-6.18-1.9-10.84c-3.03-4.11-8.55-5.94-13.88-4.57
			c-7.92-9.82-20.06-12.71-28.14-8.18c-6.2,3.46-8.22,10.27-8.75,12.36c-0.52-0.1-4.83-0.9-8.18,2.09
			c-2.11,1.89-2.69,4.26-2.85,5.13c-2.47-3.41-6.58-5.13-10.46-4.38c-4.78,0.93-8.43,5.47-8.37,10.84c-2.52,0.44-4.4,2.52-4.57,4.94
			C1042.49,621.52,1044.44,624.03,1047.24,624.54z"/>
		<path class="st3" d="M1261.04,558.23l99.65,0.02c2.59-1.18,3.87-4.1,3.04-6.66c-0.9-2.78-4.07-4.41-7.04-3.42
			c-0.45-0.94-1.37-2.47-3.12-3.53c-2.86-1.75-6.71-1.52-10.01,0.49c0.2-0.75,1.54-6.18-1.9-10.84c-3.03-4.11-8.55-5.94-13.88-4.57
			c-7.92-9.82-20.06-12.71-28.14-8.18c-6.2,3.46-8.22,10.27-8.75,12.36c-0.52-0.1-4.83-0.9-8.18,2.09
			c-2.11,1.89-2.69,4.26-2.85,5.13c-2.47-3.41-6.58-5.13-10.46-4.38c-4.78,0.93-8.43,5.47-8.37,10.84c-2.52,0.44-4.4,2.52-4.57,4.94
			C1256.29,555.21,1258.24,557.72,1261.04,558.23z"/>
		<g>
			<g>
				<path class="st3" d="M986.76,955.14l0.07-295.55l163.32,0.04l-0.07,295.55L986.76,955.14z M994.22,666.98l-0.07,280.77
					l148.54,0.04l0.07-280.77L994.22,666.98z"/>
			</g>
			<g>
				<path class="st3" d="M986.83,666.98l0.06-230.06l163.32,0.04l-0.06,230.06L986.83,666.98z M994.28,444.3l-0.05,215.28
					l148.54,0.04l0.05-215.28L994.28,444.3z"/>
			</g>
			<g>
				<path class="st3" d="M848.59,955.11l0.07-295.55l145.56,0.04l-0.07,295.55L848.59,955.11z M856.05,666.94l-0.07,280.77
					l130.78,0.03l0.07-280.77L856.05,666.94z"/>
			</g>
			<g>
				<path class="st3" d="M848.66,666.94l0.06-230.06l145.56,0.04l-0.06,230.06L848.66,666.94z M856.1,444.27l-0.05,215.28
					l130.78,0.03l0.05-215.28L856.1,444.27z"/>
			</g>
			<g>
				<path class="st3" d="M1142.76,667.02l0.06-230.06l163.32,0.04l-0.06,230.06L1142.76,667.02z M1150.21,444.34l-0.05,215.28
					l148.54,0.04l0.05-215.28L1150.21,444.34z"/>
			</g>
			<g>
				<path class="st3" d="M1142.69,955.18l0.07-295.55l163.32,0.04l0,3.7l-0.07,291.86L1142.69,955.18z M1150.15,667.02l-0.07,280.77
					l148.54,0.04l0.07-280.77L1150.15,667.02z"/>
			</g>
			<g>
				<path class="st3" d="M1298.62,955.22l0.07-295.55l149.46,0.04l0,3.7l-0.07,291.86L1298.62,955.22z M1306.08,667.06l-0.07,280.77
					l134.68,0.03l0.07-280.77L1306.08,667.06z"/>
			</g>
			<g>
				<path class="st3" d="M1298.69,667.06l0.06-230.06l149.46,0.04l-0.06,230.06L1298.69,667.06z M1306.14,444.38l-0.05,215.28
					l134.68,0.03l0.05-215.28L1306.14,444.38z"/>
			</g>
		</g>
	</g>
	<g>
		<path class="st4" d="M1327.24,987.92c-0.45-7.7-0.69-12.11-0.87-15.29c-0.41-7.49-0.62-12.11-3.98-14.69
			c-0.89-0.69-1.78-1.06-2.39-1.27c-3.27-0.96-6.54-1.92-9.82-2.88c-15.38,2.94-30.76,5.89-46.15,8.83
			c-16.42-13.37-32.84-26.74-49.26-40.1c-3.16,4.84-6.32,9.69-9.48,14.53c10.5,18.66,21.45,32.05,29.52,40.82
			c10.07,10.95,15.26,16.47,22.92,19.2c10.88,3.87,23.2,1.37,47.39-3.79C1314.59,991.27,1322.25,989.28,1327.24,987.92z"/>
		<path class="st5" d="M1379.56,1167.37c0.52-0.21,1.04-0.43,1.55-0.64c13.44-5.59,24.76-11,28.9-13.01
			c4.76,16.19,9.51,32.39,14.27,48.58c36.2,1.13,72.41,2.27,108.61,3.4c1.25,2.38,2.51,4.77,3.76,7.15
			c-50.77,22.63-90.6,35.06-108.5,38.15c-9.21,1.59-24.62,4.03-39.7-4.13c0,0-1.46-0.75-2.89-1.71
			c-7.48-4.96-20.21-18.19-36.55-66.79C1358.91,1175.49,1369.73,1171.42,1379.56,1167.37z"/>
		
			<linearGradient id="SVGID_00000138571210923021234030000002863985921051051707_" gradientUnits="userSpaceOnUse" x1="-1430.1748" y1="-5341.6733" x2="-1391.1088" y2="-5341.6733" gradientTransform="matrix(-0.7756 -0.6312 0.6312 -0.7756 3822.6968 -3818.7671)">
			<stop  offset="0" style="stop-color:#5AEDC8"/>
			<stop  offset="0.3142" style="stop-color:#63DBC8"/>
			<stop  offset="0.6769" style="stop-color:#6BCEC8"/>
			<stop  offset="1" style="stop-color:#6DC9C8"/>
		</linearGradient>
		<path style="fill:url(#SVGID_00000138571210923021234030000002863985921051051707_);" d="M1551.46,1216.89
			c2.74,4.31,4.76,7.49,7.09,12.19c-0.62,0-1.1-0.19-1.26-0.26c-6.84-3.63-12.14-6.44-15.59-8.2l-4.82-2.96
			c-2.37-1.43-3.62-2.15-3.93-3.51c-0.22-0.97,0.29-1.15,0.16-2.66c-0.06-0.71-0.21-2.37-1.5-3.54c-1.12-1.02-2.5-1.14-3.04-1.15
			c0,0-0.38-6.46,8.28-9.07c0.94,0.99,2.26,2.4,3.77,4.16C1545.51,1207.57,1548.59,1212.38,1551.46,1216.89z"/>
		<path class="st7" d="M1558.55,1229.08c-2.33-4.7-4.35-7.88-7.09-12.19c-2.87-4.51-5.95-9.32-10.83-15
			c-1.51-1.76-2.83-3.18-3.77-4.16c0,0,1.08-3.53,4.98-1.52l19.2,31.44c-0.11,0.18-0.64,1.03-1.74,1.34
			C1559.03,1229.05,1558.78,1229.08,1558.55,1229.08z"/>
		<g>
			<path class="st7" d="M1534.8,1216.69c0.31,0,0.6-0.16,0.76-0.45l2.75-5.03c0.23-0.42,0.07-0.95-0.35-1.18
				c-0.42-0.23-0.95-0.08-1.18,0.35l-2.75,5.03c-0.23,0.42-0.07,0.95,0.35,1.18C1534.52,1216.65,1534.66,1216.69,1534.8,1216.69z"/>
		</g>
		<g>
			<path class="st7" d="M1538.73,1219.01c0.31,0,0.6-0.16,0.76-0.45l2.75-5.03c0.23-0.42,0.07-0.95-0.35-1.18
				c-0.42-0.23-0.95-0.08-1.18,0.35l-2.75,5.03c-0.23,0.42-0.07,0.95,0.35,1.18C1538.44,1218.98,1538.58,1219.01,1538.73,1219.01z"
				/>
		</g>
		<g>
			<path class="st7" d="M1542.65,1221.33c0.31,0,0.6-0.16,0.76-0.45l2.75-5.03c0.23-0.42,0.07-0.95-0.35-1.18
				c-0.42-0.23-0.95-0.08-1.18,0.34l-2.75,5.03c-0.23,0.42-0.07,0.95,0.35,1.18C1542.37,1221.3,1542.51,1221.33,1542.65,1221.33z"/>
		</g>
		
			<linearGradient id="SVGID_00000159467752993414976710000005570676952713456573_" gradientUnits="userSpaceOnUse" x1="2257.2673" y1="1339.9965" x2="2445.4502" y2="1109.7197" gradientTransform="matrix(-1 0 0 1 3786.0447 0)">
			<stop  offset="0.3548" style="stop-color:#F7AA46"/>
			<stop  offset="1" style="stop-color:#F46B45"/>
		</linearGradient>
		<path style="fill:url(#SVGID_00000159467752993414976710000005570676952713456573_);" d="M1316.12,1078.17
			c19.96-6.91,39.93-13.82,59.89-20.73c16.24,43.02,32.48,86.04,48.72,129.05c-9.33,5.23-20.08,10.57-32.21,15.5
			c-15.84,6.44-30.58,10.78-43.45,13.75c-4.18-19.71-8.66-39.73-13.46-60.05C1329.37,1129.16,1322.85,1103.32,1316.12,1078.17z"/>
		<path class="st3" d="M1345.68,1097.18c-0.33-0.8,0.11-1.69,0.97-1.99c0.86-0.29,1.83,0.1,2.15,0.9l43.58,106.76
			c-1.02,0.38-2.07,0.76-3.1,1.14L1345.68,1097.18z"/>
		<path class="st9" d="M1247.42,1194.55c4.06-12.93,9.33-29.13,9.33-29.13c3.13-9.63,6.28-19.17,9.45-28.63
			c8.38,4.84,18.35,9.26,28.15,13.06c0.54,0.21,1.08,0.42,1.62,0.63c16.99,6.49,33.16,11.07,39.23,12.72
			c-38.85,59.47-77.69,118.95-116.54,178.42c-2.5-1.16-5.01-2.31-7.51-3.47C1227.27,1268.35,1240.81,1215.58,1247.42,1194.55z"/>
		
			<linearGradient id="SVGID_00000133528928924216109080000005315964081328041393_" gradientUnits="userSpaceOnUse" x1="-2366.6736" y1="1291.9878" x2="-2327.6116" y2="1291.9878" gradientTransform="matrix(0.9999 -0.0194 0.0194 0.9999 3524.3232 6.581)">
			<stop  offset="0" style="stop-color:#5AEDC8"/>
			<stop  offset="0.3142" style="stop-color:#63DBC8"/>
			<stop  offset="0.6769" style="stop-color:#6BCEC8"/>
			<stop  offset="1" style="stop-color:#6DC9C8"/>
		</linearGradient>
		<path style="fill:url(#SVGID_00000133528928924216109080000005315964081328041393_);" d="M1196.19,1346.34
			c-4.87-1.52-8.47-2.64-13.29-4.72c0.47-0.41,0.96-0.56,1.13-0.61c7.57-1.65,13.43-2.93,17.2-3.82l5.59-0.85
			c2.74-0.44,4.15-0.7,5.26,0.14c0.79,0.6,0.52,1.07,1.6,2.13c0.51,0.5,1.69,1.67,3.43,1.74c1.52,0.06,2.64-0.75,3.07-1.09
			c0,0,4.46,4.68-0.46,12.27c-1.35-0.14-3.28-0.38-5.57-0.74C1206.75,1349.61,1201.29,1347.93,1196.19,1346.34z"/>
		<path class="st7" d="M1182.9,1341.62c4.82,2.08,8.42,3.2,13.29,4.72c5.1,1.59,10.56,3.26,17.96,4.45c2.29,0.37,4.21,0.6,5.57,0.74
			c0,0,1.46,3.39-2.82,4.38l-34.97-11.59c-0.04-0.21-0.18-1.2,0.47-2.14C1182.55,1341.95,1182.72,1341.77,1182.9,1341.62z"/>
		
			<linearGradient id="SVGID_00000181769386224526212850000002239223685857430460_" gradientUnits="userSpaceOnUse" x1="2430.3003" y1="1106.9237" x2="2629.717" y2="1426.975" gradientTransform="matrix(-1 -6.800000e-03 -6.800000e-03 1 3774.8755 -1.9078)">
			<stop  offset="0.3548" style="stop-color:#F7AA46"/>
			<stop  offset="1" style="stop-color:#F46B45"/>
		</linearGradient>
		<path style="fill:url(#SVGID_00000181769386224526212850000002239223685857430460_);" d="M1293.85,1057.43
			c28.07-0.58,56.14-1.16,84.21-1.75c0.84,5.97,1.32,14.51-0.79,24.29c-1.25,5.79-3.07,10.49-4.57,13.79
			c-1.02,2.23-1.89,3.83-2.05,4.12c-2.74,5.07-15.24,35-43.91,106.23c-10.38-1.41-22.83-3.96-36.46-8.66
			c-18.22-6.28-32.7-14.38-43.3-21.42c11.34-23.92,22.47-49.74,32.95-77.44C1284.97,1083.27,1289.6,1070.21,1293.85,1057.43z"/>
		<path class="st3" d="M1332.27,1059.11c0.29-0.63,1.09-0.92,1.76-0.65c0.68,0.27,1,0.99,0.71,1.62l-60.18,129.62
			c-0.84-0.29-1.67-0.59-2.51-0.89L1332.27,1059.11z"/>
		<path class="st12" d="M1328.04,930.68c-3.02-0.03-8.2,0.33-13.92,2.93c-4.01,1.82-6.93,4.12-8.83,5.9
			c0.67,4.95,1.34,9.9,2.01,14.86c2.72,0.76,8.37,1.93,15.17,0.31c5.25-1.25,9.01-3.66,11.14-5.26
			C1331.76,943.17,1329.9,936.92,1328.04,930.68z"/>
		<path class="st13" d="M1294.87,895.47c-1.1-0.84-2.98-2.52-4.13-5.26c-1.81-4.31-1.02-9.33,1.62-12.88
			c0.62-0.83,2.36-3.12,5.44-4.22c5.21-1.88,8.37,1.74,17.51,3.83c8.83,2.02,9.8-0.47,16.1,2.02c2.4,0.95,8.59,3.4,11.87,9.67
			c4.46,8.52-0.07,18.01-0.82,19.52c3.05,3.64,3.68,6.84,3.82,8.66c0.73,9.68-9.73,18.91-19.9,20.56c-1.23,0.2-6.38,0.93-11.9-1.29
			C1302.45,931.25,1295.16,915.04,1294.87,895.47z"/>
		<path class="st12" d="M1320.39,926.81c2.33,0.74,3.8,0.2,4.37-0.06c4.25-1.97,4.31-10.06,1.93-12.09
			c-1.26-1.07-2.59-1.07-2.59-1.07c-0.19,0-0.73,0.01-1.4,0.3c-2.71,1.16-3.97,5.2-3.97,5.2c-0.51-0.56-1.02-1.12-1.53-1.68
			c3.59-9.06,0.27-18.68-6.62-22.44c-7.13-3.89-15.04,0.15-15.71,0.51c-1.25,2.45-2.49,5.07-3.69,7.86c-1.66,3.84-3.04,7.53-4.2,11
			c-0.63,0.39-1.44,1.03-1.54,1.91c-0.09,0.82,0.48,1.29,0.84,2.37c0.42,1.27,0.21,2.33,0.08,3.25c-0.51,3.72-0.42,9.95-0.16,13
			c0.34,4.06,0.51,6.09,1.59,7.47c4.8,6.16,19.69,0.38,25.44-1.85c2.57-1,6.16-2.65,6.83-5.55c0.13-0.54,0.17-1.56,0.25-3.58
			C1320.37,929.47,1320.39,927.89,1320.39,926.81z"/>
		<path class="st14" d="M1294.72,929.75c-0.83,4.13-4.71,6.83-8.83,6.32c-0.02-0.7-0.03-1.47-0.04-2.34
			c-0.02-1.41,0.06-3.51,0.21-5.71L1294.72,929.75z"/>
		<g>
			<path class="st7" d="M1207.96,1342.82c0.06,0,0.12-0.01,0.17-0.02c0.47-0.1,0.77-0.55,0.68-1.02l-1.15-5.61
				c-0.1-0.47-0.56-0.77-1.02-0.68c-0.47,0.1-0.77,0.55-0.68,1.02l1.15,5.61C1207.2,1342.54,1207.56,1342.82,1207.96,1342.82z"/>
		</g>
		<g>
			<path class="st7" d="M1203.46,1343.58c0.06,0,0.12-0.01,0.17-0.02c0.47-0.1,0.77-0.55,0.68-1.02l-1.15-5.61
				c-0.1-0.47-0.56-0.77-1.02-0.68c-0.47,0.1-0.77,0.55-0.68,1.02l1.15,5.61C1202.7,1343.3,1203.06,1343.58,1203.46,1343.58z"/>
		</g>
		<g>
			<path class="st7" d="M1198.96,1344.34c0.06,0,0.12-0.01,0.17-0.02c0.47-0.1,0.77-0.55,0.68-1.02l-1.15-5.61
				c-0.1-0.47-0.56-0.77-1.02-0.68c-0.47,0.1-0.77,0.55-0.68,1.02l1.15,5.61C1198.2,1344.06,1198.56,1344.34,1198.96,1344.34z"/>
		</g>
		<path class="st4" d="M1333.19,948.09c-2.83,1.69-7.61,4.05-13.96,5.01c-5.04,0.76-9.31,0.37-12.24-0.13
			c-5.64,18.25-10.88,40.17-13.85,65.23c-1.88,15.86-2.58,30.58-2.55,43.88c9.74-0.12,19.47-0.24,29.21-0.37
			c20.05-0.25,40.09-0.5,60.14-0.75c-3.25-14.29-8.36-35.86-14.68-59.09c-2.37-8.74-5.21-18.78-10.26-31.45
			c-2.94-7.39-5.73-13.4-7.75-17.55C1342.57,951.28,1337.88,949.69,1333.19,948.09z"/>
		<path class="st4" d="M1332.38,943.29c0.83-0.54,2.05-1.3,3.55-2.13c12.89-7.09,34.92-12.42,49.76-1.9
			c2.58,1.83,9.39,6.66,10.34,14.99c1.1,9.67-6.58,16.38-7.02,16.76c-6.8,5.76-16.22,5.51-22.51,3.08
			c-11.06-4.27-8.3-13.7-18.48-17.77c-9.18-3.67-14.99,2.58-31.99-0.71c-3.79-0.73-6.82-1.69-8.77-2.37
			c4.05-0.12,10.75-0.91,17.77-4.74C1328.07,946.85,1330.5,944.99,1332.38,943.29z"/>
		<g>
			<path class="st14" d="M1206.53,912.8c-4.49,2.28-5.62,8.11-6.08,10.56c-2.9,15.31,8.22,29.24,13.99,30.13
				c5.78,0.89,9.02-0.66,10.98,0.38c1.96,1.04,4.78,2.01,10.57-2.28c6.37-4.72,16.96-23.67,8.7-33.78
				c-2.18-2.67-6.37-5.58-11.04-5.73c-5.08-0.17-6.61,3.07-11.92,2.25c-3.59-0.56-4.38-2.28-8.69-2.53
				C1211.67,911.73,1208.96,911.57,1206.53,912.8z"/>
			<g>
				<path class="st15" d="M1222.7,953.61c-2.35-0.1-4.69-1.2-6.86-3.28c-0.14-0.13-0.15-0.36-0.01-0.5c0.13-0.14,0.36-0.15,0.5-0.01
					c2.61,2.5,7.92,5.76,14.12-0.51c0.14-0.14,0.36-0.14,0.5,0c0.14,0.14,0.14,0.36,0,0.5
					C1228.32,952.46,1225.5,953.73,1222.7,953.61z"/>
			</g>
			<path class="st16" d="M1218.07,915.38c0,0,5.36,0.66,8.58-0.2c-0.28,0.31-1.71,1.8-4.05,1.93
				C1220.01,917.25,1218.33,915.64,1218.07,915.38z"/>
			<path class="st15" d="M1215.28,904.03c1.18,0.95,3.41,2.99,4.85,6.36c1.16,2.73,1.32,5.17,1.31,6.61
				c0.39,0.02,0.77,0.03,1.16,0.05c0.3-2.82,0.3-7.48-2.39-11.74c-0.35-0.56-0.73-1.07-1.11-1.54L1215.28,904.03z"/>
			<g>
				<path class="st15" d="M1221.9,917.76c-1.57-0.07-3.12-0.8-4.57-2.18c-0.21-0.2-0.22-0.54-0.02-0.75
					c0.2-0.21,0.54-0.22,0.75-0.02c1.93,1.85,4.99,3.3,8.56-0.32c0.21-0.21,0.54-0.21,0.75,0c0.21,0.21,0.21,0.54,0,0.75
					C1225.63,917,1223.76,917.84,1221.9,917.76z"/>
			</g>
		</g>
		<g>
			<path class="st12" d="M1198.12,928.08c3.44-0.64,6.87-1.28,10.31-1.92c1.27-0.27,1.99-1.56,1.65-2.65
				c-0.3-0.96-1.37-1.6-2.47-1.37c-3.51,0.31-7.02,0.63-10.53,0.94C1195.3,926.49,1198.12,928.08,1198.12,928.08z"/>
			<path class="st12" d="M1198.28,933.12c3.3-0.46,6.6-0.92,9.9-1.38c1.38-0.09,2.32-1.31,2.14-2.44c-0.14-0.91-1-1.67-2.07-1.74
				c-3.38,0.17-6.75,0.34-10.13,0.51C1195.92,930.82,1198.28,933.12,1198.28,933.12z"/>
			<path class="st12" d="M1198.39,937.43c2.78-0.32,5.88-0.7,9.24-1.13c0.76-0.32,1.25-1.06,1.25-1.88c0-0.84-0.53-1.59-1.32-1.89
				c-3.1,0.2-6.19,0.4-9.29,0.6C1197.11,934.95,1197.77,936.53,1198.39,937.43z"/>
			<path class="st12" d="M1196.79,923.35c3.27-0.63,6.54-1.26,9.82-1.89c1.38-0.16,2.25-1.43,2.02-2.54
				c-0.19-0.9-1.08-1.62-2.15-1.63c-3.36,0.34-6.73,0.69-10.09,1.03C1194.32,921.18,1196.79,923.35,1196.79,923.35z"/>
		</g>
		<path class="st17" d="M1346.5,951.58c-3.97-1.7-7.9-0.69-9.42-0.3c-19.02,4.87-29.63,40.8-31.03,45.71l0,0l0,0
			c-0.45,0.85-0.92,1.58-1.46,2.28c-16.46,12.07-32.85,19.85-48.63,24.63c0.74,3.37,1.85,8.4,2.59,11.74
			c10.94-0.87,17.98-1.28,24.27-1.72c4.89-0.34,11.93-0.88,20.6-1.71c0,0,16.5-1.74,25.88-8.71c1-0.75,1.69-1.36,2.23-1.83
			c3.75-3.27,6.79-6.96,9.47-11.08l0,0l0,0c3.32-5.1,6.08-10.88,8.86-17.5c4.27-10.19,6.28-15.34,6.55-17.24
			C1357.66,966.9,1354.34,954.94,1346.5,951.58z"/>
		<path class="st12" d="M1252.09,1025.01c-0.3,0.08-0.6,0.16-0.89,0.24c-0.4-0.99-1.2-2.47-2.76-3.38
			c-0.79-0.46-1.36-0.53-5.62-0.65c0,0-2.32-0.07-7.22,0.39c-0.76,0.07-1.92,0.19-2.38,1.01c-0.26,0.46-0.23,1.04-0.05,1.49
			c0.28,0.71,1.02,1.21,1.89,1.28c1.99,0.09,3.99,0.17,5.98,0.26c-5.47,1.17-10.95,2.33-16.42,3.5c-1,0.19-1.63,1.16-1.45,2.08
			c0.17,0.84,0.98,1.46,1.9,1.4c3.09-0.39,6.19-0.77,9.28-1.16c-2.98,0.88-5.97,1.76-8.95,2.64c-0.98,0.17-1.65,1.04-1.58,1.93
			c0.07,1.01,1.09,1.83,2.21,1.65c3.03-0.59,6.06-1.18,9.08-1.77c-2.83,0.96-5.66,1.91-8.48,2.87c-0.86,0.41-1.31,1.31-1.13,2.1
			c0.22,0.98,1.39,1.68,2.55,1.31c2.86-0.69,5.72-1.39,8.58-2.08c-2.61,0.84-5.21,1.68-7.82,2.52c-0.55,0.5-0.74,1.29-0.47,1.98
			c0.26,0.67,0.91,1.12,1.64,1.14c9.6-2.44,16.69-4.43,19.2-5.23c0.61-0.2,1.84-0.61,3-1.68c1.15-1.06,1.69-2.22,1.92-2.84
			c0.48-0.04,1.21-0.1,2.09-0.17c0.81-0.07,1.6-0.13,2.37-0.19c-0.74-3.34-1.85-8.37-2.59-11.74
			C1254.66,1024.29,1253.37,1024.66,1252.09,1025.01z"/>
	</g>
	<g>
		<g>
			<g>
				<rect x="597.8" y="1083.91" class="st18" width="16.32" height="119.46"/>
				<rect x="1033.19" y="1083.91" class="st18" width="16.32" height="119.46"/>
			</g>
			<rect x="533.11" y="1066.75" class="st19" width="561.96" height="31.34"/>
		</g>
		<g>
			<path class="st20" d="M874.76,1076.76c-2.87-1.74-10.35-5.73-20.07-4.78c-13.97,1.38-21.97,11.95-23.41,13.86
				c-5.97,7.9-7.92,17.9-9.56,26.28c0,0-0.3,1.52-0.52,2.89c-1.61,9.98-4.2,37.6,15.33,60.18c15.11,17.48,35.05,21.77,42.04,22.93
				c0-3.82,0-7.64,0-11.47c-6.89-1.54-17.86-5.17-27.71-14.33c-19.95-18.55-18.29-45.3-17.68-55.9c0.81-13.96,4.9-20.79,7.64-24.37
				c2.25-2.93,6.44-8.39,13.86-10.03c10.37-2.29,18.83,4.68,20.07,5.73C874.76,1084.09,874.76,1080.42,874.76,1076.76z"/>
			<polygon class="st21" points="884.83,1069.48 889.95,1078.09 890.84,1077.49 883.17,1063.68 880.46,1066.96 888.07,1079.35 
				888.95,1078.76 883.88,1070.07 			"/>
			<path class="st20" d="M890.74,1080.09c-2.87-1.74-10.35-5.73-20.07-4.78c-13.97,1.38-21.97,11.95-23.41,13.86
				c-5.97,7.9-7.92,17.9-9.56,26.28c0,0-0.3,1.52-0.52,2.89c-1.61,9.98-4.2,37.6,15.33,60.18c15.11,17.48,35.05,21.77,42.04,22.93
				c0-3.82,0-7.64,0-11.47c-6.89-1.54-17.86-5.17-27.71-14.33c-19.95-18.55-18.29-45.3-17.68-55.9c0.81-13.96,4.9-20.79,7.64-24.37
				c2.25-2.93,6.44-8.39,13.86-10.03c10.37-2.29,18.83,4.68,20.07,5.73C890.74,1087.42,890.74,1083.75,890.74,1080.09z"/>
			
				<linearGradient id="SVGID_00000027580597597401621910000011269733675425551494_" gradientUnits="userSpaceOnUse" x1="2144.8984" y1="1205.9821" x2="2202.0459" y2="1205.9821" gradientTransform="matrix(0.9992 -0.0403 0.0403 0.9992 -1304.1129 7.8291)">
				<stop  offset="0.3548" style="stop-color:#F7AA46"/>
				<stop  offset="1" style="stop-color:#F46B45"/>
			</linearGradient>
			<path style="fill:url(#SVGID_00000027580597597401621910000011269733675425551494_);" d="M946.78,1173.87
				c-2.12-25.98-5.04-61.23-5.89-69.09c-1.06-9.92-2.21-17.42-7.88-23.94c-4.08-1.83-9.17-3.01-9.17-3.01
				c-3.66-0.86-6.12-1.03-14.02-1.43c-15.94-0.81-19.69-0.81-21.31,1.72c-0.79,1.24-0.79,2.65-0.72,3.45l1.87,94.57
				C897.49,1175.95,934.28,1175.04,946.78,1173.87z"/>
			
				<linearGradient id="SVGID_00000155833492818110427890000008838251958073091250_" gradientUnits="userSpaceOnUse" x1="2192.0388" y1="1209.0381" x2="2208.5317" y2="1209.0381" gradientTransform="matrix(0.9992 -0.0403 0.0403 0.9992 -1304.1129 7.8291)">
				<stop  offset="0.3548" style="stop-color:#F7AA46"/>
				<stop  offset="1" style="stop-color:#F46B45"/>
			</linearGradient>
			<path style="fill:url(#SVGID_00000155833492818110427890000008838251958073091250_);" d="M953.12,1170.12
				c-0.2-4.91-0.46-6.81-0.46-6.81c-4.55-33.15-4.82-75.78-19.57-82.43c-0.03-0.01-0.05-0.02-0.08-0.03
				c5.68,6.52,6.82,14.03,7.88,23.94c0.84,7.85,3.76,43.1,5.89,69.09C946.78,1173.87,950.79,1172.91,953.12,1170.12z"/>
			<g>
				<path class="st21" d="M915.4,1177.42c-0.08,0-0.16,0-0.25-0.01c-1.06-0.09-1.84-1.02-1.75-2.08l8.64-98.46
					c0.09-1.06,1.03-1.84,2.08-1.75c1.06,0.09,1.84,1.02,1.75,2.08l-8.64,98.46C917.15,1176.64,916.35,1177.38,915.4,1177.42z"/>
			</g>
			<path class="st21" d="M889.61,1175.5l0.6,30.16c8.78,0.49,18.63,0.59,29.35-0.05c10.86-0.64,20.74-1.92,29.5-3.47
				c0,0-1.02-12.64-2.35-28.9C934.21,1174.41,897.42,1175.32,889.61,1175.5z"/>
			<path class="st20" d="M946.71,1173.24c1.33,16.27,2.35,28.9,2.35,28.9c0.87-1.52,2-3.78,2.87-6.67c1.26-4.22,1.31-7.66,1.33-9.46
				c0.06-7.51-0.05-12.86-0.2-16.53C950.71,1172.28,946.71,1173.24,946.71,1173.24z"/>
		</g>
		<path class="st3" d="M634.85,896.24c3.3-4.24,6.6-8.83,9.8-13.79c12.96-20.06,20.43-39.82,24.85-56.44
			c3.04,0.36,6.08,0.72,9.12,1.09c1.28,9.12,3.04,27.19-0.64,46.34c-0.97,5.03-2.7,13.74-7.51,24.02
			c-0.67,1.43-2.85,5.99-6.43,11.59c-3.65,5.71-7.64,10.73-11.72,15.13C643.19,914.2,637.57,902.75,634.85,896.24z"/>
		
			<linearGradient id="SVGID_00000048474544519011568730000014249999808282697859_" gradientUnits="userSpaceOnUse" x1="1059.6597" y1="1848.1218" x2="1167.0767" y2="1848.1218" gradientTransform="matrix(0.9188 -0.3947 0.3947 0.9188 -1096.61 -346.5208)">
			<stop  offset="0" style="stop-color:#5AEDC8"/>
			<stop  offset="0.3142" style="stop-color:#63DBC8"/>
			<stop  offset="0.6769" style="stop-color:#6BCEC8"/>
			<stop  offset="1" style="stop-color:#6DC9C8"/>
		</linearGradient>
		<path style="fill:url(#SVGID_00000048474544519011568730000014249999808282697859_);" d="M634.85,896.24
			c2.72,6.51,8.34,17.96,17.47,27.94c-5.12,6.18-12.12,13.41-21.37,20.28c-5.44,4.04-10.7,7.25-15.48,9.79
			c-4.04-13.08-8.07-26.16-12.11-39.24c7.01-1.71,12.27-4.07,15.82-5.97c0.81-0.43,2.12-1.12,3.73-2.16
			C626.46,904.62,630.46,901.36,634.85,896.24z"/>
		<path class="st3" d="M679.1,829.08c0.44-0.24,1.08-0.64,1.72-1.27c0.09-0.09,1.1-1.08,1.72-2.44c1.26-2.77,0.31-5.71,0.12-6.26
			c-2.19-3.23-4.38-6.47-6.57-9.7c-2.31,2.55-4.63,5.1-6.94,7.65c0.03-1.73,0.05-3.46,0.08-5.18c-0.02-0.76-0.44-1.44-1.09-1.74
			c-0.41-0.19-0.95-0.27-1.39-0.09c-0.78,0.33-0.96,1.32-1.06,1.96c-0.68,4.19-0.74,6.19-0.74,6.19c-0.16,0.55-0.9,3.31,0.67,5.93
			c0.75,1.25,1.75,1.99,2.37,2.37c-0.11,0.93-0.22,1.87-0.35,2.82c-0.3,2.31-0.64,4.56-1.01,6.75c4.37,0.38,8.75,0.75,13.12,1.13
			c-0.35-1.72-0.62-3.71-0.67-5.9C679.06,830.52,679.07,829.78,679.1,829.08z"/>
		<path class="st3" d="M588.17,890.44c2.96-0.1,8.06,0.14,13.74,2.55c3.98,1.69,6.9,3.89,8.81,5.59c-0.54,4.88-1.09,9.76-1.63,14.64
			c-2.66,0.81-8.18,2.09-14.89,0.66c-5.18-1.11-8.94-3.38-11.07-4.91C584.81,902.78,586.49,896.61,588.17,890.44z"/>
		<path class="st25" d="M636.05,847.24c0.97-3.02,1.51-5.87-0.01-7.99c-1.37-1.91-3.8-2.37-4.98-2.51c0,0-13.11-5.99-30.98-4.72
			c-5.04,0.36-8.39,1.56-9.61,2.04c-1.99,0.78-9.01,3.65-13.85,11.07c-3.99,6.12-4.37,12.02-4.63,16.07
			c-0.45,6.92,1.16,11.91,4.25,21.6c1.6,5,4,11.71,7.59,19.43c4.01-3.44,8.01-6.88,12.02-10.32c11.28-9.69,20.63-16.81,30.89-27.98
			C626.74,863.94,632.78,857.38,636.05,847.24z"/>
		<path class="st3" d="M705.69,1183.16c0.88-10.2,1.76-20.39,2.63-30.59l-16.94-0.62c1.64,10.83,3.27,21.65,4.91,32.48
			C699.43,1184.01,702.56,1183.58,705.69,1183.16z"/>
		<path class="st26" d="M717.18,1193.63c5.01-0.16,8.71-0.28,13.82-1c-0.34-0.51-0.76-0.78-0.91-0.87
			c-6.73-3.54-11.95-6.29-15.29-8.11l-5.07-2.27c-2.48-1.13-3.75-1.75-5.02-1.24c-0.91,0.36-0.78,0.87-2.07,1.6
			c-0.61,0.34-2.03,1.14-3.7,0.75c-1.45-0.34-2.31-1.4-2.62-1.83c0,0-5.45,3.27-2.77,11.74c1.32,0.22,3.2,0.5,5.46,0.75
			C706.33,1193.96,711.94,1193.8,717.18,1193.63z"/>
		<path class="st3" d="M731,1192.63c-5.11,0.72-8.81,0.84-13.82,1c-5.25,0.17-10.86,0.33-18.17-0.48c-2.26-0.25-4.14-0.53-5.46-0.75
			c0,0-2.27,2.83,1.52,4.88l36.15-1.83c0.09-0.19,0.48-1.09,0.12-2.15C731.25,1193.04,731.13,1192.82,731,1192.63z"/>
		<path class="st3" d="M769.74,1177.09c-2.12-10.01-4.25-20.02-6.37-30.03l-16.39,4.34c4.71,9.88,9.43,19.77,14.14,29.65
			C763.99,1179.72,766.87,1178.4,769.74,1177.09z"/>
		<path class="st26" d="M780.9,1188.52c5.01-0.16,8.71-0.28,13.82-1c-0.34-0.51-0.76-0.78-0.91-0.87
			c-6.73-3.54-11.95-6.28-15.29-8.11l-5.07-2.27c-2.48-1.13-3.75-1.75-5.02-1.24c-0.91,0.36-0.78,0.87-2.07,1.6
			c-0.61,0.34-2.03,1.14-3.7,0.75c-1.45-0.34-2.31-1.4-2.62-1.83c0,0-5.45,3.27-2.77,11.74c1.32,0.22,3.2,0.5,5.46,0.75
			C770.04,1188.85,775.65,1188.69,780.9,1188.52z"/>
		<path class="st3" d="M794.71,1187.52c-5.11,0.72-8.81,0.84-13.82,1c-5.25,0.17-10.86,0.33-18.17-0.48
			c-2.26-0.25-4.14-0.53-5.46-0.75c0,0-2.26,2.83,1.52,4.88l36.15-1.84c0.09-0.19,0.48-1.09,0.12-2.15
			C794.96,1187.93,794.84,1187.71,794.71,1187.52z"/>
		
			<linearGradient id="SVGID_00000061464474103420226620000016167172600473215901_" gradientUnits="userSpaceOnUse" x1="-576.0876" y1="1173.9521" x2="-489.8403" y2="1049.0043" gradientTransform="matrix(-1 0 0 1 175.9004 0)">
			<stop  offset="0" style="stop-color:#C06C84"/>
			<stop  offset="0.2593" style="stop-color:#A36681"/>
			<stop  offset="0.5238" style="stop-color:#8C6180"/>
			<stop  offset="0.7759" style="stop-color:#7F5E7E"/>
			<stop  offset="1" style="stop-color:#7A5D7E"/>
		</linearGradient>
		<path style="fill:url(#SVGID_00000061464474103420226620000016167172600473215901_);" d="M753.7,1173.63
			c-14.34-32.54-28.68-65.09-43.02-97.63c-11.32,3.67-29.5,8.11-51.9,7.11c-21.44-0.96-48.98-2.28-65.24-22.76
			c-12.92-16.28-12.12-37.04-10.81-47.45c11.27-4.97,22.54-9.94,33.81-14.91c9.29,4.65,18.57,9.29,27.86,13.94
			c8.33,1.87,19.93,4.53,33.75,7.89c44.82,10.89,56.4,15.35,65.03,25.58c6.47,7.68,8.67,15.5,11.2,25.92
			c5.35,22,11.95,54.55,16.27,97.46C765,1170.4,759.35,1172.01,753.7,1173.63z"/>
		
			<linearGradient id="SVGID_00000110430123598275701880000015710095778891570357_" gradientUnits="userSpaceOnUse" x1="-552.4528" y1="1091.6825" x2="-380.3884" y2="1091.6825" gradientTransform="matrix(-1 0 0 1 175.9004 0)">
			<stop  offset="0" style="stop-color:#C06C84"/>
			<stop  offset="0.2593" style="stop-color:#A36681"/>
			<stop  offset="0.5238" style="stop-color:#8C6180"/>
			<stop  offset="0.7759" style="stop-color:#7F5E7E"/>
			<stop  offset="1" style="stop-color:#7A5D7E"/>
		</linearGradient>
		<path style="fill:url(#SVGID_00000110430123598275701880000015710095778891570357_);" d="M692.61,1178.15
			c-4.68-29.35-9.36-58.71-14.03-88.06c-19.55-1.72-36.24-3.28-49.17-4.53c-44.25-4.28-54.76-5.6-62.9-14.17
			c-4.03-4.24-13.8-16.9-8.86-47.13c18.75-6.4,37.51-12.8,56.26-19.2c5.18,5.66,10.37,11.31,15.55,16.97
			c9.66,1.04,23.76,2.76,40.74,5.56c37.97,6.26,46.4,9.82,51.83,16.68c7.41,9.36,6.76,21.28,5.64,33.44
			c-2.13,23.13-6.93,57.29-18.81,100.61C703.44,1178.26,698.03,1178.21,692.61,1178.15z"/>
		
			<linearGradient id="SVGID_00000125575498320289992170000013470026987871860386_" gradientUnits="userSpaceOnUse" x1="-455.2144" y1="966.9486" x2="-380.3778" y2="966.9486" gradientTransform="matrix(-1 0 0 1 175.9004 0)">
			<stop  offset="0" style="stop-color:#5AEDC8"/>
			<stop  offset="0.3142" style="stop-color:#63DBC8"/>
			<stop  offset="0.6769" style="stop-color:#6BCEC8"/>
			<stop  offset="1" style="stop-color:#6DC9C8"/>
		</linearGradient>
		<path style="fill:url(#SVGID_00000125575498320289992170000013470026987871860386_);" d="M556.29,983.49
			c0.13,9.08,0.28,23.68,0.16,42.23c10.79,0.19,26.22-0.8,43.72-6.28c12.89-4.04,23.25-9.38,30.95-14.11
			c0.03-8.88-0.15-16.45-0.38-22.32c-0.31-8.16-0.75-15.31-1.72-24.92c-0.32-3.2-0.81-6.79-1.58-11.13
			c-1.95-10.93-4.31-18.55-9.97-25.61c-3.15-3.93-6.45-6.59-8.81-8.26c-3.81-0.52-7.84-1.18-12.06-2.04
			c-4.33-0.88-8.4-1.87-12.19-2.91c-4.22,0.66-10.24,2.31-15.08,6.98c0,0-1.01,1-1.91,2.17
			C555.55,932.72,556.29,983.49,556.29,983.49z"/>
		<path class="st3" d="M595.93,886.87c-2.41,0.25-3.72-0.56-4.22-0.93c-3.73-2.76-2.18-10.61,0.53-12.11
			c1.43-0.79,2.73-0.53,2.73-0.53c0.18,0.04,0.7,0.16,1.3,0.57c2.4,1.66,2.82,5.83,2.82,5.83c0.61-0.44,1.21-0.89,1.82-1.33
			c-1.68-9.5,3.45-18.17,10.87-20.45c7.69-2.36,14.56,3.13,15.14,3.61c0.72,2.62,1.41,5.41,2.02,8.36c0.85,4.06,1.46,7.91,1.89,11.5
			c0.54,0.5,1.19,1.28,1.11,2.16c-0.07,0.81-0.72,1.16-1.28,2.14c-0.66,1.15-0.66,2.22-0.72,3.14c-0.24,3.71-1.57,9.73-2.42,12.64
			c-1.13,3.87-1.7,5.8-3.02,6.93c-5.87,5.02-19.18-3.54-24.31-6.84c-2.29-1.47-5.45-3.8-5.52-6.73c-0.01-0.55,0.15-1.54,0.47-3.52
			C595.43,889.45,595.72,887.92,595.93,886.87z"/>
		<path class="st3" d="M627.5,904.09c0.2-0.62,0.42-1.31,0.67-2.1c0.73-2.32,1.16-4.49,1.42-6.42l-8.99-0.17
			C620.5,899.66,623.48,903.23,627.5,904.09z"/>
		<g>
			<rect x="402.63" y="997.07" class="st18" width="36.5" height="220.52"/>
			<rect x="844.29" y="997.07" class="st18" width="36.5" height="220.52"/>
			<rect x="329.63" y="981.26" class="st19" width="657.01" height="36.88"/>
		</g>
		<g>
			<path class="st30" d="M659.8,795.21l-2.53-10.44c-0.04-0.15-0.07-0.3-0.1-0.45c-0.03-0.15-0.06-0.3-0.09-0.45
				c0.16-0.68,0.7-1.21,1.38-1.36c0.65-0.14,1.32,0.09,1.76,0.6l3,12.37c0.16,0.68,0.68,1.14,1.15,1.03l0.51-0.12
				c0.47-0.11,0.71-0.76,0.55-1.44c-1-4.12-2-8.25-3-12.37c0.12-0.65,0.6-1.17,1.23-1.34c0.66-0.18,1.38,0.06,1.81,0.61l2.99,12.33
				c0.16,0.68,0.68,1.14,1.15,1.03l0.22-0.05l0.05-0.01l0.22-0.05c0.47-0.11,0.71-0.76,0.55-1.44l-2.99-12.33
				c0.13-0.69,0.66-1.23,1.33-1.37c0.64-0.13,1.3,0.11,1.71,0.63c1,4.12,2,8.25,3,12.37c0.16,0.68,0.68,1.14,1.15,1.03l0.51-0.12
				c0.47-0.11,0.71-0.76,0.55-1.44l-3-12.37c0.15-0.65,0.65-1.16,1.29-1.33c0.67-0.18,1.39,0.04,1.85,0.57
				c0.04,0.14,0.08,0.29,0.12,0.44c0.04,0.15,0.08,0.29,0.11,0.44l2.53,10.44c0.28,0.98,0.59,2.55,0.41,4.49
				c-0.09,0.97-0.27,2.66-1.32,4.46c-1.3,2.23-3.08,3.31-4.02,3.78c2.73,11.13,5.36,22.3,8.08,33.43c0.26,1.04-0.38,2.1-1.43,2.35
				l0,0l-0.05,0.01l0,0c-1.04,0.25-2.09-0.39-2.35-1.43c-2.68-11.15-5.46-22.27-8.13-33.42c-1.05,0.02-3.12-0.13-5.3-1.52
				c-1.76-1.12-2.69-2.53-3.21-3.36C660.44,797.75,660,796.2,659.8,795.21z"/>
			<path class="st31" d="M675.25,793.88l0.11-0.03c0.47-0.11,0.71-0.76,0.55-1.44l-3-12.37c0.1-0.43,0.36-0.81,0.71-1.06l3.23,13.34
				C676.85,792.32,676.85,794.28,675.25,793.88z"/>
			<path class="st31" d="M669.93,795.17l0.11-0.03c0.47-0.11,0.71-0.76,0.55-1.44l-3-12.37c0.1-0.43,0.36-0.81,0.71-1.06l3.23,13.34
				C671.53,793.61,671.53,795.57,669.93,795.17z"/>
			<path class="st31" d="M664.78,796.41l0.11-0.03c0.47-0.11,0.71-0.76,0.55-1.44l-3-12.37c0.1-0.43,0.36-0.81,0.71-1.06l3.23,13.34
				C666.39,794.86,666.39,796.81,664.78,796.41z"/>
			<path class="st31" d="M657.27,784.77c-0.04-0.15-0.07-0.3-0.1-0.45c-0.03-0.15-0.06-0.3-0.09-0.45c0.06-0.27,0.18-0.51,0.35-0.71
				l3.28,13.54c0.39,1,1.07,2.34,2.24,3.65c2.56,2.85,5.78,3.66,7.05,3.9c-1.06,0-3.19-0.17-5.3-1.52
				c-1.77-1.12-2.69-2.54-3.21-3.36c-1.05-1.63-1.49-3.18-1.69-4.18L657.27,784.77z"/>
		</g>
		<g>
			<path class="st3" d="M682.4,819.41c-3.52,0.11-7.04,0.22-10.56,0.33c-1.3,0-2.29-1.11-2.19-2.26c0.09-1.01,1-1.87,2.14-1.88
				c3.52-0.45,7.04-0.89,10.57-1.34C684.85,817.25,682.4,819.41,682.4,819.41z"/>
			<path class="st3" d="M681.9,813.91c-3.52,0.11-7.04,0.22-10.56,0.33c-1.3,0-2.29-1.11-2.19-2.26c0.09-1.01,1-1.87,2.14-1.88
				c3.52-0.45,7.04-0.89,10.57-1.34C684.34,811.74,681.9,813.91,681.9,813.91z"/>
			<path class="st3" d="M683.34,824.41c-3.35,0.26-6.69,0.52-10.04,0.77c-1.38,0.21-2.57-0.79-2.63-1.94
				c-0.05-0.92,0.62-1.86,1.66-2.16c3.36-0.56,6.72-1.12,10.08-1.68C685.17,821.64,683.34,824.41,683.34,824.41z"/>
			<path class="st3" d="M684.24,828.37c-2.78,0.44-5.89,0.91-9.27,1.41c-0.82-0.1-1.5-0.69-1.72-1.49
				c-0.22-0.81,0.08-1.69,0.76-2.19c3.06-0.65,6.12-1.29,9.17-1.94C684.81,825.61,684.59,827.33,684.24,828.37z"/>
		</g>
		
			<linearGradient id="SVGID_00000117666298827057765470000009167933655782998665_" gradientUnits="userSpaceOnUse" x1="15.2123" y1="4046.7368" x2="68.5114" y2="4046.7368" gradientTransform="matrix(0.0305 -0.9996 -0.9996 -0.0305 5082.5098 1006.9169)">
			<stop  offset="0" style="stop-color:#191519"/>
			<stop  offset="0.6452" style="stop-color:#312B30"/>
		</linearGradient>
		<path style="fill:url(#SVGID_00000117666298827057765470000009167933655782998665_);" d="M1110.46,833.81
			c0.35-5.33-2.17-11.55-6.83-14.75c-11.2-7.71-29.33,5.64-47.45,11.75c-17.19,5.8-43.16,8.02-81.3-8.32
			c-2.56,5.46-5.13,10.93-7.69,16.39c11.99,9.63,47.21,35.21,89.23,28.33C1076.38,863.94,1109.31,851.48,1110.46,833.81z"/>
		<path class="st20" d="M1102.98,817.75c-2.87-1.74-10.35-5.73-20.07-4.78c-13.97,1.38-21.97,11.95-23.41,13.86
			c-5.97,7.9-7.92,17.9-9.56,26.28c0,0-0.3,1.52-0.52,2.89c-1.61,9.98-4.2,37.6,15.33,60.18c15.11,17.48,35.05,21.77,42.04,22.93
			c0-3.82,0-7.64,0-11.47c-6.89-1.54-17.86-5.17-27.71-14.33c-19.95-18.55-18.29-45.3-17.68-55.9c0.81-13.96,4.9-20.79,7.64-24.37
			c2.25-2.93,6.44-8.39,13.86-10.03c10.37-2.29,18.83,4.68,20.07,5.73C1102.98,825.08,1102.98,821.41,1102.98,817.75z"/>
		<path class="st3" d="M1075.96,1231.83c-0.51-10.66-1.02-21.33-1.53-31.99l17.04-0.57c-2.11,11.23-4.22,22.46-6.33,33.69
			c-1.41,1.86-3.73,2.67-5.79,2.07C1076.98,1234.34,1076.08,1232.11,1075.96,1231.83z"/>
		<path class="st33" d="M1064.74,1242.62c-5.04-0.03-8.76-0.06-13.91-0.64c0.33-0.52,0.75-0.81,0.89-0.9
			c6.68-3.73,11.85-6.63,15.15-8.55l5.04-2.41c2.46-1.2,3.72-1.85,5.01-1.38c0.92,0.34,0.8,0.86,2.12,1.56
			c0.62,0.33,2.07,1.09,3.74,0.66c1.45-0.38,2.28-1.47,2.58-1.91c0,0,5.56,3.15,3.09,11.73c-1.32,0.25-3.2,0.59-5.47,0.9
			C1075.67,1242.67,1070.02,1242.66,1064.74,1242.62z"/>
		<path class="st7" d="M1050.83,1241.98c5.15,0.59,8.87,0.61,13.91,0.64c5.28,0.03,10.92,0.05,18.25-0.96
			c2.27-0.31,4.15-0.64,5.47-0.9c0,0,2.35,2.78-1.4,4.95l-36.38-0.91c-0.09-0.19-0.51-1.08-0.18-2.16
			C1050.59,1242.39,1050.71,1242.17,1050.83,1241.98z"/>
		
			<linearGradient id="SVGID_00000181800797604298434740000009466858306534461373_" gradientUnits="userSpaceOnUse" x1="10019.2295" y1="1232.2496" x2="9985.5479" y2="992.4321" gradientTransform="matrix(-1 0 0 1 11072.8838 0)">
			<stop  offset="0" style="stop-color:#7AC4B4"/>
			<stop  offset="0.4953" style="stop-color:#73C3BF"/>
			<stop  offset="1" style="stop-color:#70C3C4"/>
		</linearGradient>
		<path style="fill:url(#SVGID_00000181800797604298434740000009466858306534461373_);" d="M1053.89,947.16
			c6.19,0.11,12.37,0.22,18.56,0.33c5.81,36.16,22.76,71.08,22.76,71.08c-0.15,68.12-0.3,136.23-0.45,204.35
			c-7.49,0.6-14.97,1.2-22.46,1.8c-9.63-41.43-18.01-91.36-21.11-148.21C1048.57,1028.18,1050.29,984.63,1053.89,947.16z"/>
		<path class="st3" d="M1160.53,1233.31c-2.46-10.39-4.92-20.77-7.38-31.16l16.64-3.69c-0.01,11.43-0.02,22.86-0.03,34.28
			c-1.04,2.09-3.18,3.31-5.32,3.1C1162,1235.59,1160.7,1233.57,1160.53,1233.31z"/>
		<path class="st33" d="M1149.2,1242.49c-5.04,0.1-8.76,0.18-13.93-0.27c0.32-0.53,0.72-0.83,0.87-0.93
			c6.57-3.91,11.67-6.95,14.92-8.96l4.97-2.55c2.43-1.27,3.67-1.95,4.98-1.52c0.93,0.31,0.83,0.84,2.16,1.5
			c0.63,0.31,2.1,1.04,3.76,0.55c1.44-0.42,2.24-1.53,2.53-1.98c0,0,5.64,2.99,3.41,11.64c-1.31,0.29-3.19,0.67-5.45,1.05
			C1160.11,1242.25,1154.47,1242.38,1149.2,1242.49z"/>
		<path class="st7" d="M1135.27,1242.23c5.16,0.45,8.89,0.37,13.93,0.27c5.28-0.11,10.92-0.25,18.22-1.45
			c2.26-0.37,4.13-0.76,5.45-1.05c0,0,2.42,2.72-1.27,4.98l-36.39,0.09c-0.1-0.18-0.54-1.07-0.23-2.15
			C1135.04,1242.65,1135.15,1242.42,1135.27,1242.23z"/>
		
			<linearGradient id="SVGID_00000139276626363547907300000011543440841394801811_" gradientUnits="userSpaceOnUse" x1="-8755.5615" y1="1082.5836" x2="-8620.4434" y2="1082.5836" gradientTransform="matrix(1 0 0 1 9795.9805 0)">
			<stop  offset="0" style="stop-color:#7AC4B4"/>
			<stop  offset="0.4953" style="stop-color:#73C3BF"/>
			<stop  offset="1" style="stop-color:#70C3C4"/>
		</linearGradient>
		<path style="fill:url(#SVGID_00000139276626363547907300000011543440841394801811_);" d="M1137.43,948.66
			c0.62,7.31,1.52,17.5,2.69,29.64c0.37,3.83,4.49,46.19,9.88,87.43c8.79,67.2,21.05,131.98,25.53,155.12
			c-7.97,1.14-15.94,2.28-23.91,3.42c-15.66-39.45-30.7-83.07-43.84-130.69c-6.5-23.54-12.08-46.4-16.87-68.47
			c-5.31-10.11-10.79-22.27-15.49-36.38c-5.99-17.96-9.13-34.31-10.78-47.83C1088.91,943.49,1113.17,946.07,1137.43,948.66z"/>
		<path class="st3" d="M1077.4,822.76c-4.41,6.07-10.19,15.21-14.77,27.2c-2.94,7.69-5.97,18.44-8.08,44.46
			c-1.15,14.11-1.97,33.41-0.67,56.59c7.41,0.22,14.82,0.45,22.23,0.67c-2.8-19.98-4.45-45.32-1.77-74.35
			c1.87-20.33,5.48-38.26,9.51-53.37C1081.69,823.55,1079.54,823.16,1077.4,822.76z"/>
		
			<linearGradient id="SVGID_00000029765810772007242720000000388691164892061586_" gradientUnits="userSpaceOnUse" x1="7707.3472" y1="973.1777" x2="7731.3159" y2="848.725" gradientTransform="matrix(-1 0 0 1 8817.9404 0)">
			<stop  offset="0" style="stop-color:#191519"/>
			<stop  offset="0.6452" style="stop-color:#312B30"/>
		</linearGradient>
		<path style="fill:url(#SVGID_00000029765810772007242720000000388691164892061586_);" d="M1121.29,838.6
			c-2.3-5.76-5.07-9.49-6.79-11.55c-3.61-4.32-7.46-7.07-10.13-8.7c-1.8,1.36-6.88,4.85-14.22,5.04c-2.37,0.06-4.47-0.23-6.29-0.67
			c-5.19,18.06-10.06,39.68-13.03,64.33c-3.01,24.99-3.38,47.43-2.57,66.4c23.35,0,46.71,0,70.06,0
			c-1.49-15.46-2.51-27.91-3.14-35.93C1135.19,917.52,1130.87,862.57,1121.29,838.6z"/>
		<path class="st3" d="M1098.78,799.46c-3.03-0.03-8.23,0.33-13.97,2.94c-4.03,1.83-6.95,4.14-8.86,5.92
			c0.67,4.97,1.35,9.94,2.02,14.91c2.73,0.76,8.4,1.94,15.22,0.31c5.27-1.26,9.05-3.67,11.18-5.28
			C1102.51,811.98,1100.65,805.72,1098.78,799.46z"/>
		<path class="st37" d="M1064.04,767.82c-0.82-0.23-16.77-4.93-16.46-10.67c0.2-3.78,7.37-6.24,11.63-7.66
			c8.48-2.82,38.26-12.74,53.32,5.12c9.12,10.82,7.21,25.17,6.7,28.36c-3.17,19.53-20.35,28.47-22.22,29.41
			c-2.55-1.63-5.15-3.5-7.73-5.65C1074.4,794.28,1067.43,778.53,1064.04,767.82z"/>
		<path class="st38" d="M1092.16,797.54c2.04,0.37,3.21-0.23,3.66-0.52c3.36-2.11,2.55-8.9,0.34-10.35
			c-1.17-0.77-2.29-0.63-2.29-0.63c-0.16,0.02-0.61,0.09-1.14,0.4c-2.15,1.26-2.78,4.78-2.78,4.78c-0.49-0.42-0.97-0.83-1.46-1.25
			c2.05-7.99-1.76-15.71-7.94-18.13c-6.4-2.51-12.61,1.72-13.13,2.1c-0.79,2.19-1.55,4.52-2.26,6.99c-0.98,3.4-1.75,6.64-2.36,9.68
			c-0.49,0.39-1.1,1.01-1.09,1.77c0.01,0.7,0.54,1.03,0.95,1.9c0.49,1.02,0.42,1.93,0.41,2.72c-0.04,3.17,0.7,8.4,1.24,10.93
			c0.72,3.37,1.07,5.05,2.13,6.1c4.68,4.66,16.57-1.77,21.16-4.25c2.05-1.11,4.89-2.88,5.14-5.38c0.05-0.47-0.03-1.32-0.17-3.03
			C1092.42,799.77,1092.27,798.45,1092.16,797.54z"/>
		<path class="st3" d="M1094.12,796.5c2.47,0.45,3.9-0.29,4.45-0.63c4.08-2.56,3.1-10.82,0.41-12.58c-1.42-0.93-2.78-0.76-2.78-0.76
			c-0.19,0.02-0.74,0.11-1.39,0.49c-2.62,1.53-3.38,5.82-3.38,5.82c-0.59-0.51-1.18-1.01-1.78-1.52c2.49-9.71-2.14-19.09-9.65-22.04
			c-7.78-3.05-15.32,2.1-15.96,2.55c-0.96,2.66-1.88,5.49-2.75,8.49c-1.2,4.14-2.13,8.08-2.86,11.76c-0.6,0.48-1.33,1.23-1.32,2.15
			c0.01,0.85,0.65,1.26,1.16,2.31c0.6,1.24,0.51,2.35,0.5,3.31c-0.04,3.86,0.86,10.2,1.51,13.28c0.87,4.1,1.3,6.14,2.58,7.42
			c5.69,5.67,20.14-2.15,25.72-5.16c2.49-1.35,5.94-3.5,6.25-6.54c0.06-0.57-0.03-1.61-0.21-3.68
			C1094.44,799.21,1094.26,797.61,1094.12,796.5z"/>
		<path class="st3" d="M1068.4,803.32c0,4.33-3.37,7.84-7.62,8.16c-0.16-0.7-0.32-1.47-0.51-2.35c-0.3-1.42-0.65-3.55-0.94-5.8
			H1068.4z"/>
		<g>
			<g>
				<polygon class="st3" points="894.95,785.63 856.76,785.63 857.33,798.61 894.38,798.61 				"/>
				<polygon class="st39" points="857.33,798.61 859.84,855.73 891.87,855.73 894.38,798.61 				"/>
			</g>
			<g>
				<path class="st40" d="M990.63,822.5c10.79-5.19,10.53-5.67,14.08-7.04c3.6-1.39,18.6-7.2,30.13,0.39
					c6.31,4.15,8.75,10.46,9.44,12.32c0.92,2.48,3.71,9.99,0.24,17.5c-4.64,10.06-16.88,12.3-18.64,12.6
					c-0.69,0.12-1.22,0.19-1.54,0.23c-10.23,1.36-18.38-3.13-26.09-7.37c0,0-4.02-2.21-21.46-15.75l1.16-7.03
					C980.89,827.04,985.31,825.06,990.63,822.5z"/>
				<path class="st3" d="M958.3,829.71c-1.12-2.07-0.81-4.4,0.56-5.62c0.78-0.68,1.98-1.09,3.18-0.8c1.55,0.38,2.73,1.86,2.86,3.69
					c4.34,0.45,8.69,0.9,13.03,1.35l-1.16,7.03l-12.52-1.58c-0.06,0.13-0.91,2-2.97,2.34c-1.18,0.19-2.6-0.15-3.45-1.19
					C956.73,833.58,956.84,831.32,958.3,829.71z"/>
				<path class="st41" d="M958.3,829.71c-0.45,1.83,0.54,3.66,2.15,4.24c1.37,0.49,2.97,0,3.93-1.24c4.2,0.47,8.39,0.94,12.59,1.4
					l-0.21,1.25l-12.52-1.58c-0.06,0.13-0.91,2-2.97,2.34c-1.18,0.19-2.6-0.15-3.45-1.19C956.73,833.58,956.84,831.32,958.3,829.71z
					"/>
				<path class="st42" d="M998.23,851.12c0,0-4.02-2.21-21.46-15.75l0.21-1.25l0.13,0.01c0,0,34.29,20.61,60.52,19.46
					c-5.04,3.46-10.62,4.47-11.76,4.67c-0.69,0.12-1.22,0.19-1.54,0.23C1014.1,859.85,1005.95,855.36,998.23,851.12z"/>
				<path class="st43" d="M1004.71,815.46c3.6-1.39,18.6-7.2,30.13,0.39c6.31,4.15,8.75,10.46,9.44,12.32
					c0.92,2.48,3.71,9.99,0.24,17.5c-1.09,2.36-2.6,4.29-4.29,5.86c1.88-4.02,3.94-10.7,1.73-18.05
					c-1.97-6.56-6.35-10.32-7.86-11.59c-13.54-11.32-34.48-3.5-35.85-2.97l0.37-0.42C1001.71,816.85,1002.42,816.34,1004.71,815.46z
					"/>
			</g>
			<polygon class="st3" points="1062.35,840.28 946.73,840.28 957.39,850.94 1050.03,850.94 			"/>
			<g>
				<path class="st14" d="M936.81,814.76c4.49,2.28,5.62,8.11,6.08,10.56c2.9,15.31-8.22,29.24-13.99,30.13
					c-5.78,0.89-9.02-0.66-10.98,0.38c-1.96,1.04-4.78,2.01-10.57-2.28c-6.37-4.72-16.96-23.67-8.7-33.78
					c2.18-2.67,6.37-5.58,11.04-5.73c5.08-0.17,6.61,3.07,11.92,2.25c3.59-0.56,4.38-2.28,8.69-2.53
					C931.67,813.69,934.38,813.53,936.81,814.76z"/>
				<g>
					<path class="st15" d="M920.64,855.57c2.35-0.1,4.69-1.2,6.86-3.28c0.14-0.13,0.15-0.36,0.01-0.5c-0.13-0.14-0.36-0.15-0.5-0.01
						c-2.61,2.5-7.92,5.76-14.12-0.51c-0.14-0.14-0.36-0.14-0.5,0c-0.14,0.14-0.14,0.36,0,0.5
						C915.02,854.42,917.84,855.69,920.64,855.57z"/>
				</g>
				<path class="st16" d="M925.28,817.34c0,0-5.36,0.66-8.58-0.2c0.28,0.31,1.71,1.8,4.05,1.93
					C923.33,819.21,925.01,817.6,925.28,817.34z"/>
				<path class="st15" d="M928.06,805.99c-1.18,0.95-3.41,2.99-4.85,6.36c-1.16,2.73-1.32,5.17-1.31,6.61
					c-0.39,0.02-0.77,0.03-1.16,0.05c-0.3-2.82-0.3-7.48,2.39-11.74c0.35-0.56,0.73-1.07,1.11-1.54L928.06,805.99z"/>
				<g>
					<path class="st15" d="M921.44,819.72c1.57-0.07,3.12-0.8,4.57-2.18c0.21-0.2,0.22-0.54,0.02-0.75
						c-0.2-0.21-0.54-0.22-0.75-0.02c-1.93,1.85-4.99,3.3-8.56-0.32c-0.21-0.21-0.54-0.21-0.75,0c-0.21,0.21-0.21,0.54,0,0.75
						C917.71,818.96,919.58,819.8,921.44,819.72z"/>
				</g>
			</g>
			<polygon class="st44" points="859.16,863.78 1062.47,863.78 1076.69,845.16 844.94,845.16 			"/>
		</g>
		<path class="st3" d="M977.15,846.86c0.04-1.06-0.08-2.48-0.92-3.81c-0.49-0.78-0.97-1.1-4.71-3.2c0,0-2.04-1.14-6.63-3.01
			c-0.71-0.29-1.81-0.72-2.59-0.21c-0.45,0.29-0.69,0.83-0.74,1.31c-0.08,0.77,0.35,1.55,1.1,2.02c1.74,1,3.48,2.01,5.23,3.01
			c-5.43-1.51-10.87-3.01-16.3-4.52c-0.98-0.29-2,0.27-2.26,1.19c-0.24,0.83,0.2,1.77,1.05,2.13c2.94,1.09,5.89,2.19,8.83,3.28
			c-3.08-0.6-6.15-1.2-9.23-1.8c-0.96-0.3-1.96,0.16-2.31,0.98c-0.4,0.94,0.12,2.14,1.21,2.5c2.98,0.88,5.96,1.76,8.94,2.65
			c-2.97-0.46-5.94-0.92-8.92-1.38c-0.95-0.04-1.78,0.56-1.99,1.35c-0.26,0.98,0.46,2.15,1.67,2.35c2.88,0.71,5.75,1.42,8.63,2.13
			c-2.72-0.46-5.44-0.92-8.16-1.39c-0.73,0.19-1.26,0.81-1.34,1.55c-0.08,0.72,0.29,1.43,0.93,1.78c9.72,2.29,16.97,3.81,19.59,4.25
			c0.64,0.11,1.93,0.31,3.46-0.1c0.92-0.25,1.64-0.64,2.19-1c1.5,0.91,2.98,1.76,4.45,2.57l3.01-14.34
			C979.94,847.08,978.55,846.97,977.15,846.86z"/>
		<polygon class="st21" points="1113.05,810.47 1118.16,819.08 1119.06,818.48 1111.39,804.66 1108.68,807.95 1116.29,820.34 
			1117.17,819.75 1112.09,811.06 		"/>
		<path class="st20" d="M1118.96,821.08c-2.87-1.74-10.35-5.73-20.07-4.78c-13.97,1.38-21.97,11.95-23.41,13.86
			c-5.97,7.9-7.92,17.9-9.56,26.28c0,0-0.3,1.52-0.52,2.89c-1.61,9.98-4.2,37.6,15.33,60.18c15.11,17.48,35.05,21.77,42.04,22.93
			c0-3.82,0-7.64,0-11.47c-6.89-1.54-17.86-5.17-27.71-14.33c-19.95-18.55-18.29-45.3-17.68-55.9c0.81-13.96,4.9-20.79,7.64-24.37
			c2.25-2.93,6.44-8.39,13.86-10.03c10.37-2.29,18.83,4.68,20.07,5.73C1118.96,828.41,1118.96,824.74,1118.96,821.08z"/>
		
			<linearGradient id="SVGID_00000059284729844476096420000015090812696385830589_" gradientUnits="userSpaceOnUse" x1="-8649.7129" y1="511.3931" x2="-8592.5654" y2="511.3931" gradientTransform="matrix(0.9992 -0.0403 0.0403 0.9992 9738.0693 7.8291)">
			<stop  offset="0.3548" style="stop-color:#F7AA46"/>
			<stop  offset="1" style="stop-color:#F46B45"/>
		</linearGradient>
		<path style="fill:url(#SVGID_00000059284729844476096420000015090812696385830589_);" d="M1174.99,914.86
			c-2.12-25.98-5.04-61.23-5.89-69.09c-1.06-9.92-2.21-17.42-7.88-23.94c-4.08-1.83-9.17-3.01-9.17-3.01
			c-3.66-0.86-6.12-1.03-14.02-1.43c-15.94-0.81-19.69-0.81-21.31,1.72c-0.79,1.24-0.79,2.65-0.72,3.45l1.87,94.57
			C1125.7,916.94,1162.5,916.03,1174.99,914.86z"/>
		
			<linearGradient id="SVGID_00000148630723176419273870000004809803586082102943_" gradientUnits="userSpaceOnUse" x1="-8602.5723" y1="514.4492" x2="-8586.0801" y2="514.4492" gradientTransform="matrix(0.9992 -0.0403 0.0403 0.9992 9738.0693 7.8291)">
			<stop  offset="0.3548" style="stop-color:#F7AA46"/>
			<stop  offset="1" style="stop-color:#F46B45"/>
		</linearGradient>
		<path style="fill:url(#SVGID_00000148630723176419273870000004809803586082102943_);" d="M1181.33,911.11
			c-0.2-4.91-0.46-6.81-0.46-6.81c-4.55-33.15-4.82-75.78-19.57-82.43c-0.03-0.01-0.05-0.02-0.08-0.03
			c5.68,6.52,6.82,14.03,7.88,23.94c0.84,7.85,3.76,43.1,5.89,69.09C1174.99,914.86,1179,913.9,1181.33,911.11z"/>
		<g>
			<path class="st21" d="M1143.62,918.41c-0.08,0-0.16,0-0.25-0.01c-1.06-0.09-1.84-1.02-1.75-2.08l8.64-98.46
				c0.09-1.06,1.03-1.84,2.08-1.75c1.06,0.09,1.84,1.03,1.75,2.08l-8.64,98.46C1145.37,917.63,1144.57,918.37,1143.62,918.41z"/>
		</g>
		<path class="st21" d="M1117.82,916.49l0.6,30.16c8.78,0.49,18.63,0.59,29.35-0.05c10.86-0.64,20.74-1.92,29.5-3.47
			c0,0-1.02-12.64-2.35-28.9C1162.42,915.39,1125.63,916.31,1117.82,916.49z"/>
		<path class="st20" d="M1174.92,914.23c1.33,16.27,2.35,28.9,2.35,28.9c0.87-1.52,2-3.78,2.87-6.67c1.26-4.22,1.31-7.66,1.33-9.46
			c0.06-7.51-0.05-12.86-0.2-16.53C1178.93,913.27,1174.92,914.23,1174.92,914.23z"/>
		
			<linearGradient id="SVGID_00000057107590335973588680000003289779922224840599_" gradientUnits="userSpaceOnUse" x1="7840.0967" y1="876.7942" x2="7701.1777" y2="830.488" gradientTransform="matrix(-1 0 0 1 8817.9404 0)">
			<stop  offset="0" style="stop-color:#191519"/>
			<stop  offset="0.6452" style="stop-color:#312B30"/>
		</linearGradient>
		<path style="fill:url(#SVGID_00000057107590335973588680000003289779922224840599_);" d="M1116.12,838.22
			c-0.35-5.33-3.66-11.17-8.69-13.73c-12.11-6.18-28.35,9.42-45.51,17.84c-16.29,7.99-41.74,13.59-81.69,2.36
			c-1.83,5.75-3.66,11.5-5.48,17.25c13.15,7.98,51.4,28.75,92.16,16.45C1086.27,872.54,1117.29,855.88,1116.12,838.22z"/>
		<g>
			<g>
				<path class="st40" d="M711.69,950.56c-10.79-5.19-10.53-5.67-14.08-7.04c-3.6-1.39-18.6-7.2-30.13,0.39
					c-6.31,4.15-8.75,10.46-9.44,12.32c-0.92,2.48-3.71,9.99-0.24,17.5c4.64,10.06,16.88,12.3,18.64,12.6
					c0.69,0.12,1.22,0.19,1.54,0.23c10.23,1.36,18.38-3.13,26.09-7.37c0,0,4.02-2.21,21.46-15.75l-1.16-7.03
					C721.42,955.1,717,953.12,711.69,950.56z"/>
				<path class="st3" d="M744.01,957.77c1.12-2.07,0.81-4.4-0.56-5.62c-0.78-0.68-1.98-1.09-3.18-0.8
					c-1.55,0.38-2.73,1.86-2.86,3.69c-4.34,0.45-8.69,0.9-13.03,1.35l1.16,7.03l12.52-1.58c0.06,0.13,0.91,2,2.97,2.34
					c1.18,0.19,2.6-0.15,3.45-1.19C745.58,961.65,745.48,959.39,744.01,957.77z"/>
				<path class="st41" d="M744.01,957.77c0.45,1.83-0.54,3.66-2.15,4.24c-1.37,0.49-2.97,0-3.93-1.24
					c-4.2,0.47-8.39,0.94-12.59,1.41l0.21,1.25l12.52-1.58c0.06,0.13,0.91,2,2.97,2.34c1.18,0.19,2.6-0.15,3.45-1.19
					C745.58,961.65,745.48,959.39,744.01,957.77z"/>
				<path class="st42" d="M704.08,979.18c0,0,4.02-2.21,21.46-15.75l-0.21-1.25l-0.13,0.01c0,0-34.29,20.61-60.52,19.46
					c5.04,3.46,10.62,4.47,11.76,4.67c0.69,0.12,1.22,0.19,1.54,0.23C688.22,987.91,696.37,983.42,704.08,979.18z"/>
				<path class="st43" d="M697.61,943.52c-3.6-1.39-18.6-7.2-30.13,0.39c-6.31,4.15-8.75,10.46-9.44,12.32
					c-0.92,2.48-3.71,9.99-0.24,17.5c1.09,2.36,2.6,4.29,4.29,5.86c-1.88-4.02-3.94-10.7-1.73-18.05
					c1.97-6.56,6.35-10.32,7.86-11.59c13.54-11.32,34.48-3.5,35.85-2.97l-0.37-0.42C700.6,944.92,699.89,944.4,697.61,943.52z"/>
			</g>
			<polygon class="st3" points="639.97,968.34 755.59,968.34 744.93,979 652.29,979 			"/>
			<g>
				<path class="st14" d="M765.51,942.82c-4.49,2.28-5.62,8.11-6.08,10.56c-2.9,15.31,8.22,29.24,13.99,30.13
					c5.78,0.89,9.02-0.66,10.98,0.38c1.96,1.04,4.78,2.01,10.57-2.28c6.37-4.72,16.96-23.67,8.7-33.78
					c-2.18-2.67-6.37-5.58-11.04-5.73c-5.08-0.17-6.61,3.07-11.92,2.25c-3.59-0.56-4.38-2.28-8.69-2.53
					C770.65,941.75,767.93,941.59,765.51,942.82z"/>
				<g>
					<path class="st15" d="M781.67,983.63c-2.35-0.1-4.69-1.2-6.86-3.28c-0.14-0.13-0.15-0.36-0.01-0.5
						c0.13-0.14,0.36-0.15,0.5-0.01c2.61,2.5,7.92,5.76,14.12-0.51c0.14-0.14,0.36-0.14,0.5,0c0.14,0.14,0.14,0.36,0,0.5
						C787.3,982.49,784.47,983.76,781.67,983.63z"/>
				</g>
				<path class="st16" d="M777.04,945.4c0,0,5.36,0.66,8.58-0.2c-0.28,0.31-1.71,1.8-4.05,1.93
					C778.98,947.28,777.3,945.66,777.04,945.4z"/>
				<path class="st15" d="M774.25,934.05c1.18,0.95,3.41,2.99,4.85,6.36c1.16,2.73,1.32,5.17,1.31,6.61
					c0.39,0.02,0.77,0.03,1.16,0.05c0.3-2.82,0.3-7.48-2.39-11.74c-0.35-0.56-0.73-1.07-1.11-1.54L774.25,934.05z"/>
				<g>
					<path class="st15" d="M780.87,947.78c-1.57-0.07-3.12-0.8-4.57-2.18c-0.21-0.2-0.22-0.54-0.02-0.75
						c0.2-0.21,0.54-0.22,0.75-0.02c1.93,1.85,4.99,3.3,8.56-0.32c0.21-0.21,0.54-0.21,0.75,0c0.21,0.21,0.21,0.54,0,0.75
						C784.61,947.02,782.73,947.86,780.87,947.78z"/>
				</g>
			</g>
			<polygon class="st44" points="843.15,991.85 639.84,991.85 625.63,973.22 857.37,973.22 			"/>
		</g>
		
			<linearGradient id="SVGID_00000100354545980969814760000010865174935027994044_" gradientUnits="userSpaceOnUse" x1="94.8738" y1="343.5275" x2="6.4382" y2="430.8365" gradientTransform="matrix(-0.9654 0.2606 0.2606 0.9654 550.6695 566.5703)">
			<stop  offset="0" style="stop-color:#5AEDC8"/>
			<stop  offset="0.3142" style="stop-color:#63DBC8"/>
			<stop  offset="0.6769" style="stop-color:#6BCEC8"/>
			<stop  offset="1" style="stop-color:#6DC9C8"/>
		</linearGradient>
		<path style="fill:url(#SVGID_00000100354545980969814760000010865174935027994044_);" d="M557.26,943.81
			c-0.38-5.14-1.3-19.68,6.36-27.92c3.29-3.54,7.46-5.53,7.46-5.53c5.05-2.41,9.71-2.46,12.08-2.32c4.75,14.5,9.49,29,14.24,43.49
			l-37.23,12.41C558.18,956,557.61,948.51,557.26,943.81z"/>
		<path class="st3" d="M597.4,951.54c1.19,3.64,2.38,7.27,3.57,10.91c19.83,5.91,39.65,11.81,59.48,17.72
			c0.04,3.55,0.08,7.11,0.12,10.66c-18.5,4.28-34.11,5.82-45.4,6.38c-25.31,1.26-32.35-2.24-35.66-4.17
			c-11.21-6.55-16.61-18.24-19.34-29.09L597.4,951.54z"/>
		<path class="st3" d="M660.6,980.27c0.15-1.03,0.56-2.61,1.82-3.83c0.64-0.62,1.15-0.81,5.14-1.93c0,0,2.17-0.61,6.9-1.32
			c0.73-0.11,1.86-0.27,2.48,0.39c0.35,0.37,0.46,0.93,0.4,1.4c-0.1,0.74-0.68,1.37-1.48,1.65c-1.86,0.55-3.72,1.09-5.58,1.64
			c5.43-0.18,10.87-0.36,16.3-0.54c0.98-0.05,1.81,0.71,1.85,1.63c0.04,0.83-0.58,1.61-1.46,1.76c-3.01,0.36-6.01,0.72-9.02,1.07
			c3.02,0.13,6.04,0.27,9.06,0.4c0.96-0.07,1.8,0.6,1.94,1.45c0.17,0.97-0.6,1.98-1.7,2.07c-2.99,0.15-5.98,0.3-8.98,0.46
			c2.89,0.24,5.78,0.48,8.67,0.72c0.9,0.18,1.54,0.93,1.56,1.71c0.02,0.98-0.92,1.91-2.1,1.83c-2.86,0.01-5.71,0.03-8.57,0.04
			c2.65,0.18,5.31,0.37,7.96,0.55c0.64,0.34,1,1.05,0.9,1.76c-0.09,0.69-0.6,1.27-1.28,1.46c-9.62-0.05-16.77-0.27-19.32-0.45
			c-0.62-0.04-1.88-0.15-3.22-0.88c-1.34-0.73-2.11-1.7-2.47-2.23c-1.31,0.1-2.78,0.2-4.32,0.31l0.16-11.65
			C657.67,979.92,659.16,980.09,660.6,980.27z"/>
		<g>
			<path class="st49" d="M829.47,942.34c4.5-0.02,8.69-0.27,12.56-0.64l-0.42,52.39c-0.03,3.88-3.26,7-7.21,6.97l-12.32-0.1
				c-3.95-0.03-7.13-3.2-7.1-7.09l0.42-52.18C819.7,942.11,824.4,942.37,829.47,942.34z"/>
			<g class="st50">
				
					<rect x="813.72" y="948.59" transform="matrix(8.042635e-03 -1 1 8.042635e-03 -137.2526 1762.4231)" class="st51" width="11.96" height="3.61"/>
			</g>
			<g class="st50">
				<path class="st51" d="M815.4,941.7l0.13-16.52c0.01-0.42,0.09-2.44,1.75-4.05c1.92-1.87,4.42-1.68,4.77-1.64l0.02-2.8
					l14.31,0.16l-0.02,2.94c3.23,0.03,5.83,2.62,5.8,5.79l-0.13,16.12c-3.86,0.37-8.06,0.62-12.56,0.64
					C824.4,942.37,819.7,942.11,815.4,941.7z"/>
			</g>
			<g class="st50">
				<path class="st51" d="M832.04,924.55l2.88,0.02c0.23,0.2,1.39,1.32,1.5,3.34c0.11,1.97-0.44,59-0.58,73.01
					c-0.47,0.09-0.96,0.14-1.46,0.13l-1.83-0.01l0.59-73.16C833.15,927.89,832.22,925.07,832.04,924.55z"/>
			</g>
			
				<rect x="821.86" y="902.2" transform="matrix(8.036010e-03 -1 1 8.036010e-03 -87.9596 1732.5649)" class="st52" width="14.86" height="16.83"/>
			<g class="st50">
				
					<rect x="825.52" y="909.13" transform="matrix(8.041867e-03 -1 1 8.041867e-03 -84.3625 1736.2494)" class="st51" width="14.86" height="3.04"/>
			</g>
			<g class="st53">
				
					<rect x="817.4" y="909.58" transform="matrix(8.046826e-03 -1 1 8.046826e-03 -92.3657 1728.0505)" class="st51" width="14.86" height="2"/>
			</g>
			<path class="st54" d="M819.7,994.52c1.55,2.92,5.54,5.07,9.22,6.5l-6.85-0.05c-3.95-0.03-7.13-3.2-7.1-7.09l0.24-29.73
				C816.22,976.8,817.92,991.16,819.7,994.52z"/>
		</g>
	</g>
	<g>
		<g>
			<path class="st55" d="M358.99,907.12c0.01-0.07,0.02-0.25,0.09-0.5c0.2-0.76,0.78-1.67,2.89-4.74c0,0,1.4-2.04,4.89-5.96
				c0.54-0.61,1.38-1.53,2.36-1.41c0.56,0.07,1.04,0.46,1.32,0.9c0.43,0.69,0.4,1.63-0.09,2.43c-1.18,1.77-2.37,3.54-3.55,5.31
				c0,0-5.69,3.87-7.2,7.61c-0.01,0.02-0.02,0.03-0.03,0.05C359.14,909.71,358.82,908.45,358.99,907.12z"/>
			<path class="st55" d="M366.9,903.15c4.45-3.97,8.91-7.94,13.36-11.91c0.79-0.73,2.03-0.67,2.7,0.07
				c0.62,0.68,0.64,1.77,0.01,2.51c-2.28,2.42-4.57,4.83-6.85,7.25c2.64-2.01,5.28-4.02,7.92-6.03c0.76-0.73,1.94-0.76,2.66-0.15
				c0.82,0.7,0.89,2.09,0.02,2.94c-2.42,2.23-4.83,4.46-7.25,6.69c2.61-1.83,5.21-3.66,7.82-5.48c0.89-0.48,1.95-0.3,2.52,0.35
				c0.71,0.81,0.57,2.25-0.49,3.02c-2.4,2.02-4.8,4.04-7.2,6.06c2.37-1.71,4.73-3.42,7.1-5.13c0.78-0.16,1.58,0.18,2,0.85
				c0.41,0.65,0.39,1.49-0.05,2.12c-8.15,6.72-14.33,11.55-16.61,13.2c-0.55,0.4-1.68,1.2-3.34,1.52c-1.64,0.32-2.98,0.05-3.65-0.14
				c-1.04,1.01-2.2,2.12-3.43,3.3c-2.68-2.56-5.37-5.11-8.05-7.67c1.59-1.25,3.17-2.51,4.76-3.76c-0.42-0.57-0.84-1.23-1.18-1.95
				c0.01-0.02,0.02-0.03,0.03-0.05C361.2,907.02,366.9,903.15,366.9,903.15z"/>
		</g>
		
			<linearGradient id="SVGID_00000008866015749861731330000004669632625618945459_" gradientUnits="userSpaceOnUse" x1="2438.6077" y1="2953.1375" x2="2533.8025" y2="2953.1375" gradientTransform="matrix(-0.6918 -0.722 -0.722 0.6918 4148.6333 682.6038)">
			<stop  offset="0" style="stop-color:#191519"/>
			<stop  offset="0.6452" style="stop-color:#312B30"/>
		</linearGradient>
		<path style="fill:url(#SVGID_00000008866015749861731330000004669632625618945459_);" d="M238.69,919.87
			c1.5,2.94,3.91,8.61,4.12,16.12c0.22,7.61-1.92,13.46-3.26,16.48c14.75,6.97,34.15,14.43,54.36,17.21
			c5.48,0.75,10.81,1.13,17.15-0.03c6.08-1.12,13.83-3.8,27.83-14.96c7.95-6.33,18.74-16.07,29.75-30.07
			c-4.16-4.34-8.32-8.68-12.48-13.03c-16.31,7.43-32.61,14.85-48.92,22.28c-18.19-4.19-30.2-9.28-38.17-13.47
			c-3.98-2.09-11.21-6.2-20.02-4.8C244.45,916.34,240.92,918.33,238.69,919.87z"/>
		<path class="st57" d="M364.82,1313.88c-8.24,3.93-30.2-4.25-30.2-4.25s-0.88,8.94,2.77,11.62c3.65,2.68,43.84,1.06,46.11-4.31
			c1.01-2.39-5.53-5.36-13.09-7.92C369.73,1310.53,368.18,1312.27,364.82,1313.88z"/>
		<path class="st55" d="M147.29,1311.01c0.45-1.31,0.92-2.62,1.39-3.94c0.4-1.11,0.79-2.22,1.19-3.32
			c13.91-43.08,27.81-86.16,41.72-129.24l43.91-1.32c-23.18,44.45-46.35,88.9-69.53,133.34c0.13,0.97,0.21,2.13,0.15,3.44
			c-0.08,1.63-0.35,3.02-0.65,4.12C159.41,1313.06,153.35,1312.03,147.29,1311.01z"/>
		<path class="st58" d="M162.6,1323.27c-5.32-0.39-10.64-0.78-15.96-1.16c-0.44-1.85-0.89-4.81-0.3-8.36
			c0.37-2.21,1.04-4.03,1.66-5.38c0.01,0,1.48-0.11,1.49-0.11c4.89-0.37,7.34-0.55,7.5-0.53c1.51,0.21,1.12,0.5,7.61,2.85
			c0.63,0.23,1.15,0.41,1.48,0.53c0.15,1.57,0.21,4.3-0.89,7.4C164.45,1320.63,163.42,1322.21,162.6,1323.27z"/>
		<path class="st55" d="M240.32,1019.06c23.35,0,46.7,0,70.05,0c33.98,92.28,41.52,142.05,41.15,170.82
			c-0.07,5.18-0.75,37.53-0.1,82.11c0.2,13.87,0.48,25.27,0.68,32.78c1.73,0.57,3.51,1.13,5.35,1.66c4.68,1.36,9.16,2.43,13.36,3.26
			c-0.68,1.51-2.23,3.25-5.6,4.85c-13.19,6.25-29.15-3.62-30.19-4.33c-0.12-0.67-0.25-1.35-0.38-2.02
			c-6.99-37.53-15.49-74.33-25.39-110.41c-5.62-14.51-12.14-29.8-19.73-45.66c-10.55-22.04-21.58-41.86-32.42-59.48
			c-4.6-4.69-15.74-17.31-19.45-37.21C234.55,1038.79,238.18,1025.34,240.32,1019.06z"/>
		
			<linearGradient id="SVGID_00000101089528329086575550000010730999535025658774_" gradientUnits="userSpaceOnUse" x1="3951.2134" y1="1107.7086" x2="4118.5166" y2="1107.7086" gradientTransform="matrix(-1 0 0 1 4305.27 0)">
			<stop  offset="0" style="stop-color:#EC6B47"/>
			<stop  offset="0.6452" style="stop-color:#F6A945"/>
		</linearGradient>
		<path style="fill:url(#SVGID_00000101089528329086575550000010730999535025658774_);" d="M311.51,1020.87
			c7.53,16.37,14.92,34.82,21.47,55.26c12.11,37.77,18.16,72.38,21.08,101.43c-9.64,6.43-24.48,14.34-43.47,16.47
			c-19.13,2.14-32.14-2.75-52.69-7.24c-16.56-3.62-40.6-7.54-71.14-7.88c5.92-23.28,12.68-47.48,20.43-72.47
			c9.24-29.8,19-57.92,28.98-84.3c10.65,0.52,21.86,0.77,33.59,0.66C284.5,1022.64,298.45,1021.94,311.51,1020.87z"/>
		<g>
			<path class="st3" d="M308.58,1051.62c-4.3-11.94-7.95-22.06-10.16-29.82c1.51-0.09,3-0.18,4.49-0.28
				c2.18,7.47,5.69,17.2,9.8,28.62c12.98,36.02,31.92,88.56,30.87,133.64c-1.43,0.74-2.91,1.47-4.46,2.19
				C340.88,1141.23,321.67,1087.94,308.58,1051.62z"/>
			<path class="st3" d="M308.58,1051.62c-4.3-11.94-7.95-22.06-10.16-29.82c1.51-0.09,3-0.18,4.49-0.28
				c2.18,7.47,5.69,17.2,9.8,28.62c12.98,36.02,31.92,88.56,30.87,133.64c-1.43,0.74-2.91,1.47-4.46,2.19
				C340.88,1141.23,321.67,1087.94,308.58,1051.62z"/>
			<path class="st3" d="M303.79,1125.7c-1.61-20.43-12.65-82.34-16.46-103.36c1.48-0.06,2.96-0.12,4.43-0.19
				c3.93,21.67,14.77,82.48,16.41,103.2c1.53,19.38-1.18,53.73-2.56,69.08c-1.51,0.08-2.98,0.11-4.43,0.11
				C302.52,1179.55,305.29,1144.71,303.79,1125.7z"/>
			<path class="st3" d="M303.79,1125.7c-1.61-20.43-12.65-82.34-16.46-103.36c1.48-0.06,2.96-0.12,4.43-0.19
				c3.93,21.67,14.77,82.48,16.41,103.2c1.53,19.38-1.18,53.73-2.56,69.08c-1.51,0.08-2.98,0.11-4.43,0.11
				C302.52,1179.55,305.29,1144.71,303.79,1125.7z"/>
			<path class="st3" d="M275.89,1083.18c-0.05-19.9-0.54-40.2-1.45-60.46c1.47-0.03,2.93-0.06,4.39-0.1
				c0.91,20.29,1.4,40.62,1.45,60.55c0.07,27.07,0.11,41.98-1.78,56.06c-1.26,9.42-4.99,26.61-7.9,39.37
				c-0.9,3.95-1.73,7.53-2.45,10.56c-1.39-0.33-2.81-0.67-4.26-1.01c3.62-15.39,8.77-38.41,10.26-49.5
				C275.93,1125.42,275.97,1112.08,275.89,1083.18z"/>
			<path class="st3" d="M275.89,1083.18c-0.05-19.9-0.54-40.2-1.45-60.46c1.47-0.03,2.93-0.06,4.39-0.1
				c0.91,20.29,1.4,40.62,1.45,60.55c0.07,27.07,0.11,41.98-1.78,56.06c-1.26,9.42-4.99,26.61-7.9,39.37
				c-0.9,3.95-1.73,7.53-2.45,10.56c-1.39-0.33-2.81-0.67-4.26-1.01c3.62-15.39,8.77-38.41,10.26-49.5
				C275.93,1125.42,275.97,1112.08,275.89,1083.18z"/>
			<path class="st3" d="M258.93,1022.78c1.46,0.01,2.92,0.02,4.39,0.02c-0.49,33.8-3.95,67.65-10.3,100.74
				c-3.84,20.01-8.8,39.98-14.77,59.56c-1.43-0.22-2.9-0.44-4.39-0.66c6.01-19.63,10.99-39.66,14.85-59.73
				C255.01,1089.89,258.44,1056.31,258.93,1022.78z"/>
			<path class="st3" d="M258.93,1022.78c1.46,0.01,2.92,0.02,4.39,0.02c-0.49,33.8-3.95,67.65-10.3,100.74
				c-3.84,20.01-8.8,39.98-14.77,59.56c-1.43-0.22-2.9-0.44-4.39-0.66c6.01-19.63,10.99-39.66,14.85-59.73
				C255.01,1089.89,258.44,1056.31,258.93,1022.78z"/>
			<path class="st3" d="M224.75,1105.27c7.53-27.12,15.96-57.53,20.53-82.78c1.47,0.05,2.95,0.09,4.44,0.13
				c-4.57,25.58-13.12,56.38-20.73,83.83c-8.22,29.62-16.06,57.88-17.24,73.56c-1.43-0.11-2.89-0.22-4.36-0.32
				C208.58,1163.53,216.19,1136.1,224.75,1105.27z"/>
			<path class="st3" d="M224.75,1105.27c7.53-27.12,15.96-57.53,20.53-82.78c1.47,0.05,2.95,0.09,4.44,0.13
				c-4.57,25.58-13.12,56.38-20.73,83.83c-8.22,29.62-16.06,57.88-17.24,73.56c-1.43-0.11-2.89-0.22-4.36-0.32
				C208.58,1163.53,216.19,1136.1,224.75,1105.27z"/>
		</g>
		<path class="st55" d="M287.12,915.89c0.35,5.9,0.7,11.8,1.06,17.7l0,0c2.27,6.09,0.71,12.38-3.26,15.1
			c-6.07,4.17-14.66-2.16-15.8-3c-3.65-2.69-5.52-6.08-6.44-8.1c1.17-2.33,2.3-4.89,3.34-7.68c3.1-8.35,4.34-16.06,4.75-22.32
			C276.22,910.36,281.67,913.13,287.12,915.89z"/>
		
			<linearGradient id="SVGID_00000073707554168025361080000014362704277189239691_" gradientUnits="userSpaceOnUse" x1="2442.1538" y1="978.0181" x2="2516.8484" y2="978.0181" gradientTransform="matrix(-1 0 0 1 2753.6604 0)">
			<stop  offset="0" style="stop-color:#191519"/>
			<stop  offset="0.6452" style="stop-color:#312B30"/>
		</linearGradient>
		<path style="fill:url(#SVGID_00000073707554168025361080000014362704277189239691_);" d="M246.1,932.81
			c5.74-0.83,11.96-1.5,18.6-1.9c3.5-0.21,6.96-0.07,13-0.41c4.16-0.23,7.59-0.54,9.9-0.76c2.01,0.07,4.35,0.28,6.92,0.77
			c2.37,0.45,4.46,1.04,6.26,1.65c3.58,29.57,7.15,59.15,10.73,88.72c-3.14,1.31-7.73,2.97-13.44,4.12
			c-9.73,1.96-17.18,1.32-25.25,0.66c-10.36-0.85-21.29-1.72-36.01-2.85C239.91,992.8,243.01,962.8,246.1,932.81z"/>
		<path class="st61" d="M295.08,858.9c-5.97-6.63-12.86-9.03-15.81-10.02c-16.28-5.44-32.14,1.59-35.24,3.06
			c-34.76,16.51-11.28,69.57-52.14,115.06c-8.77,9.77-24.13,23.22-25.4,43.89c-0.25,4.1-0.68,12.79,4.44,20.13
			c9.82,14.06,36.29,17.76,54,9.12c29.43-14.36,42.18-66.45,42.31-99.81c0.04-9.06-0.63-29.98,6.1-31.88
			c4.61-1.3,8.03,7.65,14.53,7.07c9.93-0.88,19.64-23.33,15.15-41.41C300.87,865.47,296.01,859.94,295.08,858.9z"/>
		<path class="st12" d="M292.59,871.14c5.81,3.74,10.08,40.38,8.67,45.37c-1.41,4.99-10.73,4.7-16.55,4.84
			c-5.82,0.14-13.24-4.04-14.86-5.89c-1.62-1.85-1.15-8.78-1.15-8.78s-4.76,3.03-5.71-1.66c-0.96-4.69,1.5-12.22,3.54-9.74
			c2.04,2.48,2.04,2.48,2.04,2.48S286.21,867.04,292.59,871.14z"/>
		
			<linearGradient id="SVGID_00000148619273968890435940000005244030589227068811_" gradientUnits="userSpaceOnUse" x1="295.957" y1="909.243" x2="301.4947" y2="909.243">
			<stop  offset="0" style="stop-color:#EC6B47"/>
			<stop  offset="0.6452" style="stop-color:#F6A945"/>
		</linearGradient>
		<path style="fill:url(#SVGID_00000148619273968890435940000005244030589227068811_);" d="M301.49,912.29
			c-2.78-0.25-5.13-2.37-5.53-5.25c-0.01-0.05-0.01-0.09-0.01-0.14l5.14-0.71C301.3,908.46,301.44,910.53,301.49,912.29z"/>
		<polygon class="st3" points="468.91,886.85 353.29,886.85 363.95,897.51 456.59,897.51 		"/>
		<polygon class="st44" points="317.51,911.26 520.82,911.26 535.03,892.64 303.29,892.64 		"/>
		<g>
			<path class="st12" d="M392.33,909.64c-0.01-0.07-0.03-0.25-0.02-0.51c0.03-0.79,0.4-1.8,1.8-5.25c0,0,0.93-2.29,3.48-6.88
				c0.39-0.71,1.01-1.79,2-1.89c0.56-0.06,1.12,0.22,1.48,0.59c0.57,0.58,0.74,1.51,0.44,2.4c-0.77,1.98-1.55,3.97-2.32,5.95
				c0,0-4.72,5.01-5.39,8.99c0,0.02-0.02,0.04-0.02,0.06C393.03,912.13,392.45,910.97,392.33,909.64z"/>
			<path class="st12" d="M399.19,904.05c3.49-4.84,6.98-9.68,10.47-14.52c0.62-0.89,1.83-1.1,2.66-0.52
				c0.75,0.53,1.01,1.59,0.55,2.45c-1.71,2.85-3.42,5.7-5.12,8.56c2.14-2.53,4.28-5.06,6.43-7.6c0.59-0.88,1.73-1.16,2.56-0.72
				c0.95,0.51,1.32,1.85,0.65,2.87c-1.88,2.7-3.75,5.4-5.63,8.1c2.15-2.35,4.3-4.7,6.45-7.04c0.76-0.66,1.84-0.72,2.54-0.2
				c0.86,0.64,1.04,2.08,0.18,3.05c-1.91,2.49-3.81,4.98-5.72,7.47c1.94-2.18,3.88-4.36,5.82-6.55c0.73-0.32,1.58-0.16,2.13,0.4
				c0.54,0.54,0.7,1.37,0.41,2.09c-6.51,8.32-11.5,14.38-13.36,16.48c-0.45,0.51-1.39,1.53-2.93,2.21c-1.53,0.67-2.9,0.69-3.59,0.65
				c-0.8,1.21-1.69,2.55-2.64,3.96c-3.17-1.92-6.34-3.83-9.52-5.75c1.28-1.57,2.56-3.13,3.84-4.7c-0.53-0.46-1.08-1.02-1.57-1.65
				c0-0.02,0.02-0.04,0.02-0.06C394.46,909.06,399.19,904.05,399.19,904.05z"/>
		</g>
		
			<linearGradient id="SVGID_00000034076092334685469290000017134907068515267746_" gradientUnits="userSpaceOnUse" x1="2282.3445" y1="2794.364" x2="2377.5339" y2="2794.364" gradientTransform="matrix(-0.772 -0.6357 -0.6357 0.772 3911.3945 263.4435)">
			<stop  offset="0" style="stop-color:#191519"/>
			<stop  offset="0.6452" style="stop-color:#312B30"/>
		</linearGradient>
		<path style="fill:url(#SVGID_00000034076092334685469290000017134907068515267746_);" d="M277.76,935.77
			c1.84,2.75,4.89,8.09,5.99,15.53c1.11,7.53-0.32,13.59-1.3,16.75c15.46,5.19,35.61,10.32,56,10.7c5.53,0.1,10.86-0.14,17.02-2.05
			c5.91-1.83,13.29-5.4,25.88-18.12c7.15-7.23,16.73-18.16,26.01-33.36c-4.64-3.82-9.28-7.65-13.93-11.47
			c-15.32,9.29-30.64,18.59-45.96,27.88c-18.56-2.02-31.08-5.66-39.49-8.89c-4.19-1.61-11.86-4.84-20.45-2.41
			C283.07,931.59,279.8,933.97,277.76,935.77z"/>
		<g>
			<path class="st49" d="M460.27,860.69c4.5,0,8.69-0.13,12.55-0.35l-0.26,31.76c-0.02,2.35-3.24,4.24-7.19,4.2l-12.31-0.1
				c-3.95-0.03-7.14-1.97-7.12-4.32l0.25-31.63C450.51,860.52,455.21,860.69,460.27,860.69z"/>
			<g class="st50">
				
					<rect x="446.91" y="863.74" transform="matrix(8.039066e-03 -1 1 8.039066e-03 -418.6034 1309.1056)" class="st51" width="7.25" height="3.61"/>
			</g>
			<g class="st50">
				<path class="st51" d="M446.2,860.26l0.08-10.02c0.01-0.26,0.08-1.48,1.73-2.45c1.92-1.13,4.41-1,4.76-0.98l0.01-1.7l14.31,0.14
					l-0.01,1.78c3.23,0.03,5.83,1.61,5.82,3.53l-0.08,9.78c-3.86,0.21-8.06,0.35-12.55,0.35
					C455.21,860.69,450.51,860.52,446.2,860.26z"/>
			</g>
			<g class="st50">
				<path class="st51" d="M462.79,849.92l2.88,0.02c0.23,0.12,1.39,0.8,1.51,2.03c0.12,1.19-0.26,35.77-0.35,44.27
					c-0.47,0.05-0.96,0.08-1.46,0.08l-1.83-0.01l0.36-44.35C463.91,851.94,462.97,850.23,462.79,849.92z"/>
			</g>
			
				<rect x="455.49" y="833.05" transform="matrix(8.035049e-03 -1 1 8.035049e-03 -385.1306 1294.6805)" class="st52" width="9.01" height="16.83"/>
			<g class="st50">
				
					<rect x="459.15" y="839.97" transform="matrix(8.038600e-03 -1 1 8.038600e-03 -381.531 1298.3666)" class="st51" width="9.01" height="3.04"/>
			</g>
			<g class="st53">
				
					<rect x="451.03" y="840.42" transform="matrix(8.041607e-03 -1 1 8.041607e-03 -389.5298 1290.1714)" class="st51" width="9.01" height="2"/>
			</g>
			<path class="st54" d="M450.67,892.3c1.56,1.78,5.55,3.09,9.24,3.97l-6.84-0.05c-3.95-0.03-7.14-1.97-7.12-4.32l0.14-18.03
				C447.14,881.54,448.88,890.25,450.67,892.3z"/>
		</g>
		<g>
			<path class="st14" d="M383.99,845.38c-4.49,2.28-5.62,8.11-6.08,10.56c-2.9,15.31,8.22,29.24,13.99,30.13
				c5.78,0.89,9.02-0.66,10.98,0.38c1.96,1.04,4.78,2.01,10.57-2.28c6.37-4.72,16.96-23.67,8.7-33.78
				c-2.18-2.67-6.37-5.58-11.04-5.73c-5.08-0.17-6.61,3.07-11.92,2.25c-3.59-0.56-4.38-2.28-8.69-2.53
				C389.12,844.31,386.41,844.15,383.99,845.38z"/>
			<g>
				<path class="st15" d="M400.15,886.19c-2.35-0.1-4.69-1.2-6.86-3.28c-0.14-0.13-0.15-0.36-0.01-0.5c0.13-0.14,0.36-0.15,0.5-0.01
					c2.61,2.5,7.92,5.76,14.12-0.51c0.14-0.14,0.36-0.14,0.5,0c0.14,0.14,0.14,0.36,0,0.5
					C405.77,885.04,402.95,886.31,400.15,886.19z"/>
			</g>
			<path class="st16" d="M395.52,847.96c0,0,5.36,0.66,8.58-0.2c-0.28,0.31-1.71,1.8-4.05,1.93
				C397.46,849.83,395.78,848.22,395.52,847.96z"/>
			<path class="st15" d="M392.73,836.61c1.18,0.95,3.41,2.99,4.85,6.36c1.16,2.73,1.32,5.17,1.31,6.61
				c0.39,0.02,0.77,0.03,1.16,0.05c0.3-2.82,0.3-7.48-2.39-11.74c-0.35-0.56-0.73-1.07-1.11-1.54L392.73,836.61z"/>
			<g>
				<path class="st15" d="M399.35,850.34c-1.57-0.07-3.12-0.8-4.57-2.18c-0.21-0.2-0.22-0.54-0.02-0.75
					c0.2-0.21,0.54-0.22,0.75-0.02c1.93,1.85,4.99,3.3,8.56-0.32c0.21-0.21,0.54-0.21,0.75,0c0.21,0.21,0.21,0.54,0,0.75
					C403.08,849.58,401.21,850.42,399.35,850.34z"/>
			</g>
		</g>
	</g>
</g>
</svg>
